font.ufo
<glyph name="Aie" format="1">
  <advance width="834"/>
  <outline>
    <component base="AE"/>
    <contour>
      <point x="558" y="694" type="move" name="aboveUC"/>
    </contour>
  </outline>
</glyph>
<glyph name="Alpha" format="1">
  <advance width="558"/>
  <outline>
    <component base="A"/>
    <contour>
      <point x="277" y="674" type="move" name="aboveUC"/>
    </contour>
    <contour>
      <point x="277" y="-20" type="move" name="belowLC"/>
    </contour>
  </outline>
</glyph>
<glyph name="Alphalatin" format="1">
  <advance width="660"/>
  <outline>
    <contour>
      <point x="313" y="-12" type="curve" smooth="yes"/>
      <point x="383" y="-12"/>
      <point x="452" y="26"/>
      <point x="502" y="79" type="curve"/>
      <point x="506" y="79" type="line"/>
      <point x="506" y="71" type="line"/>
      <point x="519" y="16"/>
      <point x="550" y="-12"/>
      <point x="599" y="-12" type="curve" smooth="yes"/>
      <point x="626" y="-12"/>
      <point x="645" y="-5"/>
      <point x="659" y="0" type="curve"/>
      <point x="645" y="91" type="line"/>
      <point x="639" y="89"/>
      <point x="633" y="89"/>
      <point x="628" y="89" type="curve" smooth="yes"/>
      <point x="616" y="89"/>
      <point x="603" y="99"/>
      <point x="603" y="129" type="curve" smooth="yes"/>
      <point x="603" y="649" type="line"/>
      <point x="514" y="649" type="line"/>
      <point x="505" y="585" type="line"/>
      <point x="501" y="585" type="line"/>
      <point x="446" y="638"/>
      <point x="393" y="664"/>
      <point x="325" y="664" type="curve" smooth="yes"/>
      <point x="183" y="664"/>
      <point x="49" y="535"/>
      <point x="49" y="325" type="curve" smooth="yes"/>
      <point x="49" y="113"/>
      <point x="152" y="-12"/>
    </contour>
    <contour>
      <point x="334" y="89" type="curve" smooth="yes"/>
      <point x="230" y="89"/>
      <point x="168" y="171"/>
      <point x="168" y="328" type="curve" smooth="yes"/>
      <point x="168" y="480"/>
      <point x="247" y="565"/>
      <point x="338" y="565" type="curve" smooth="yes"/>
      <point x="386" y="565"/>
      <point x="436" y="550"/>
      <point x="486" y="506" type="curve"/>
      <point x="486" y="170" type="line"/>
      <point x="438" y="113"/>
      <point x="390" y="89"/>
    </contour>
    <contour>
      <point x="329" y="676" type="move" name="aboveUC"/>
    </contour>
    <contour>
      <point x="329" y="0" type="move" name="ogonekUC"/>
    </contour>
    <contour>
      <point x="329" y="-22" type="move" name="belowLC"/>
    </contour>
  </outline>
</glyph>
<glyph name="Betalatin" format="1">
  <advance width="597"/>
  <outline>
    <contour>
      <point x="83" y="-188" type="line"/>
      <point x="184" y="-188" type="line"/>
      <point x="194" y="5" type="line"/>
      <point x="188" y="75" type="line"/>
      <point x="83" y="0" type="line"/>
    </contour>
    <component base="B"/>
  </outline>
</glyph>
<glyph name="Bhook.sc" format="1">
  <advance width="658"/>
  <outline>
    <contour>
      <point x="104" y="266" type="curve"/>
      <point x="141" y="319" type="line"/>
      <point x="123" y="332"/>
      <point x="114" y="349"/>
      <point x="114" y="377" type="curve" smooth="yes"/>
      <point x="114" y="415"/>
      <point x="141" y="438"/>
      <point x="184" y="438" type="curve" smooth="yes"/>
      <point x="326" y="438" type="line"/>
      <point x="375" y="523" type="line"/>
      <point x="206" y="523" type="line" smooth="yes"/>
      <point x="105" y="523"/>
      <point x="40" y="471"/>
      <point x="40" y="381" type="curve" smooth="yes"/>
      <point x="40" y="327"/>
      <point x="61" y="288"/>
    </contour>
    <component base="B.sc" xOffset="122"/>
    <contour>
      <point x="405" y="563" type="move" name="aboveUC"/>
    </contour>
    <contour>
      <point x="415" y="-22" type="move" name="belowLC"/>
    </contour>
  </outline>
</glyph>
<glyph name="Chilatin" format="1">
  <advance width="541"/>
  <outline>
    <contour>
      <point x="13" y="-188" type="line"/>
      <point x="136" y="-188" type="line"/>
      <point x="214" y="11" type="line" smooth="yes"/>
      <point x="230" y="54"/>
      <point x="245" y="96"/>
      <point x="262" y="148" type="curve"/>
      <point x="266" y="148" type="line"/>
      <point x="286" y="96"/>
      <point x="302" y="54"/>
      <point x="319" y="11" type="curve" smooth="yes"/>
      <point x="399" y="-188" type="line"/>
      <point x="528" y="-188" type="line"/>
      <point x="342" y="239" type="line"/>
      <point x="516" y="654" type="line"/>
      <point x="393" y="654" type="line"/>
      <point x="324" y="467" type="line" smooth="yes"/>
      <point x="309" y="428"/>
      <point x="296" y="389"/>
      <point x="280" y="338" type="curve"/>
      <point x="276" y="338" type="line"/>
      <point x="256" y="389"/>
      <point x="242" y="428"/>
      <point x="226" y="467" type="curve" smooth="yes"/>
      <point x="154" y="654" type="line"/>
      <point x="25" y="654" type="line"/>
      <point x="199" y="246" type="line"/>
    </contour>
  </outline>
</glyph>
<glyph name="Chook" format="1">
  <advance width="576"/>
  <outline>
    <contour>
      <point x="436" y="581" type="curve"/>
      <point x="537" y="583" type="line"/>
      <point x="516" y="612"/>
      <point x="505" y="636"/>
      <point x="505" y="669" type="curve" smooth="yes"/>
      <point x="505" y="700"/>
      <point x="526" y="720"/>
      <point x="558" y="720" type="curve" smooth="yes"/>
      <point x="570" y="720"/>
      <point x="578" y="716"/>
      <point x="588" y="712" type="curve"/>
      <point x="610" y="798" type="line"/>
      <point x="591" y="805"/>
      <point x="570" y="811"/>
      <point x="536" y="811" type="curve" smooth="yes"/>
      <point x="456" y="811"/>
      <point x="407" y="756"/>
      <point x="407" y="686" type="curve" smooth="yes"/>
      <point x="407" y="651"/>
      <point x="417" y="619"/>
    </contour>
    <component base="C"/>
  </outline>
</glyph>
<glyph name="Dhook" format="1">
  <advance width="769"/>
  <outline>
    <contour>
      <point x="402" y="654" type="line"/>
      <point x="227" y="654" type="line" smooth="yes"/>
      <point x="109" y="654"/>
      <point x="34" y="596"/>
      <point x="34" y="494" type="curve" smooth="yes"/>
      <point x="34" y="434"/>
      <point x="58" y="390"/>
      <point x="105" y="365" type="curve"/>
      <point x="145" y="422" type="line"/>
      <point x="126" y="437"/>
      <point x="114" y="456"/>
      <point x="114" y="487" type="curve" smooth="yes"/>
      <point x="114" y="537"/>
      <point x="149" y="563"/>
      <point x="203" y="563" type="curve" smooth="yes"/>
      <point x="371" y="563" type="line"/>
    </contour>
    <component base="D" xOffset="144"/>
    <contour>
      <point x="457" y="676" type="move" name="aboveUC"/>
    </contour>
    <contour>
      <point x="453" y="-22" type="move" name="belowLC"/>
    </contour>
  </outline>
</glyph>
<glyph name="Eopen" format="1">
  <advance width="559"/>
  <outline>
    <contour>
      <point x="285" y="-12" type="curve" smooth="yes"/>
      <point x="147" y="-12"/>
      <point x="38" y="59"/>
      <point x="38" y="189" type="curve" smooth="yes"/>
      <point x="38" y="273"/>
      <point x="91" y="330"/>
      <point x="161" y="346" type="curve"/>
      <point x="161" y="350" type="line"/>
      <point x="102" y="374"/>
      <point x="71" y="428"/>
      <point x="71" y="494" type="curve" smooth="yes"/>
      <point x="71" y="601"/>
      <point x="154" y="666"/>
      <point x="291" y="666" type="curve" smooth="yes"/>
      <point x="371" y="666"/>
      <point x="445" y="636"/>
      <point x="498" y="587" type="curve"/>
      <point x="438" y="510" type="line"/>
      <point x="396" y="544"/>
      <point x="350" y="565"/>
      <point x="294" y="565" type="curve" smooth="yes"/>
      <point x="231" y="565"/>
      <point x="184" y="537"/>
      <point x="184" y="477" type="curve" smooth="yes"/>
      <point x="184" y="417"/>
      <point x="223" y="384"/>
      <point x="319" y="384" type="curve" smooth="yes"/>
      <point x="380" y="384" type="line"/>
      <point x="380" y="297" type="line"/>
      <point x="299" y="297" type="line" smooth="yes"/>
      <point x="203" y="297"/>
      <point x="152" y="266"/>
      <point x="152" y="197" type="curve" smooth="yes"/>
      <point x="152" y="127"/>
      <point x="210" y="89"/>
      <point x="286" y="89" type="curve" smooth="yes"/>
      <point x="353" y="89"/>
      <point x="406" y="109"/>
      <point x="460" y="160" type="curve"/>
      <point x="523" y="81" type="line"/>
      <point x="455" y="15"/>
      <point x="375" y="-12"/>
    </contour>
    <contour>
      <point x="280" y="676" type="move" name="aboveUC"/>
    </contour>
    <contour>
      <point x="290" y="0" type="move" name="baseLC"/>
    </contour>
    <contour>
      <point x="290" y="-22" type="move" name="belowLC"/>
    </contour>
  </outline>
</glyph>
<glyph name="Eopen.sc" format="1">
  <advance width="494"/>
  <outline>
    <contour>
      <point x="251" y="-12" type="curve" smooth="yes"/>
      <point x="326" y="-12"/>
      <point x="396" y="10"/>
      <point x="455" y="62" type="curve"/>
      <point x="400" y="138" type="line"/>
      <point x="355" y="100"/>
      <point x="306" y="78"/>
      <point x="251" y="78" type="curve" smooth="yes"/>
      <point x="193" y="78"/>
      <point x="148" y="106"/>
      <point x="148" y="156" type="curve" smooth="yes"/>
      <point x="148" y="208"/>
      <point x="187" y="234"/>
      <point x="260" y="234" type="curve" smooth="yes"/>
      <point x="331" y="234" type="line"/>
      <point x="331" y="308" type="line"/>
      <point x="276" y="308" type="line" smooth="yes"/>
      <point x="204" y="308"/>
      <point x="175" y="332"/>
      <point x="175" y="379" type="curve" smooth="yes"/>
      <point x="175" y="420"/>
      <point x="212" y="445"/>
      <point x="260" y="445" type="curve" smooth="yes"/>
      <point x="301" y="445"/>
      <point x="343" y="429"/>
      <point x="380" y="396" type="curve"/>
      <point x="436" y="470" type="line"/>
      <point x="388" y="511"/>
      <point x="324" y="535"/>
      <point x="257" y="535" type="curve" smooth="yes"/>
      <point x="133" y="535"/>
      <point x="62" y="478"/>
      <point x="62" y="392" type="curve" smooth="yes"/>
      <point x="62" y="341"/>
      <point x="89" y="298"/>
      <point x="138" y="279" type="curve"/>
      <point x="138" y="275" type="line"/>
      <point x="80" y="261"/>
      <point x="36" y="216"/>
      <point x="36" y="152" type="curve" smooth="yes"/>
      <point x="36" y="47"/>
      <point x="130" y="-12"/>
    </contour>
    <contour>
      <point x="241" y="571" type="move" name="aboveUC"/>
    </contour>
    <contour>
      <point x="240" y="0" type="move" name="baseLC"/>
    </contour>
    <contour>
      <point x="240" y="-22" type="move" name="belowLC"/>
    </contour>
  </outline>
</glyph>
<glyph name="Eopen.sups" format="1">
  <advance width="367"/>
  <outline>
    <contour>
      <point x="191" y="377" type="curve" smooth="yes"/>
      <point x="250" y="377"/>
      <point x="305" y="394"/>
      <point x="351" y="438" type="curve"/>
      <point x="306" y="494" type="line"/>
      <point x="270" y="461"/>
      <point x="234" y="448"/>
      <point x="191" y="448" type="curve" smooth="yes"/>
      <point x="142" y="448"/>
      <point x="105" y="472"/>
      <point x="105" y="516" type="curve" smooth="yes"/>
      <point x="105" y="559"/>
      <point x="138" y="579"/>
      <point x="199" y="579" type="curve" smooth="yes"/>
      <point x="254" y="579" type="line"/>
      <point x="254" y="640" type="line"/>
      <point x="212" y="640" type="line" smooth="yes"/>
      <point x="150" y="640"/>
      <point x="126" y="661"/>
      <point x="126" y="698" type="curve" smooth="yes"/>
      <point x="126" y="736"/>
      <point x="156" y="753"/>
      <point x="197" y="753" type="curve" smooth="yes"/>
      <point x="234" y="753"/>
      <point x="263" y="740"/>
      <point x="291" y="717" type="curve"/>
      <point x="335" y="772" type="line"/>
      <point x="298" y="805"/>
      <point x="248" y="825"/>
      <point x="195" y="825" type="curve" smooth="yes"/>
      <point x="100" y="825"/>
      <point x="44" y="781"/>
      <point x="44" y="711" type="curve" smooth="yes"/>
      <point x="44" y="668"/>
      <point x="65" y="631"/>
      <point x="104" y="616" type="curve"/>
      <point x="104" y="613" type="line"/>
      <point x="57" y="602"/>
      <point x="23" y="565"/>
      <point x="23" y="510" type="curve" smooth="yes"/>
      <point x="23" y="423"/>
      <point x="96" y="377"/>
    </contour>
  </outline>
</glyph>
<glyph name="Eta" format="1">
  <advance width="663"/>
  <outline>
    <component base="H"/>
    <contour>
      <point x="330" y="674" type="move" name="aboveUC"/>
    </contour>
    <contour>
      <point x="330" y="-20" type="move" name="belowLC"/>
    </contour>
  </outline>
</glyph>
<glyph name="Eth" format="1">
  <advance width="649"/>
  <outline>
    <contour>
      <point x="30" y="311" type="line"/>
      <point x="360" y="311" type="line"/>
      <point x="360" y="370" type="line"/>
      <point x="109" y="370" type="line"/>
      <point x="30" y="366" type="line"/>
    </contour>
    <component base="D" xOffset="24"/>
    <contour>
      <point x="324" y="674" type="move" name="aboveUC"/>
    </contour>
    <contour>
      <point x="324" y="-20" type="move" name="belowLC"/>
    </contour>
  </outline>
</glyph>
<glyph name="Eturned" format="1">
  <advance width="538"/>
  <outline>
    <component base="E" xScale="-1.0" xOffset="538"/>
    <contour>
      <point x="256" y="676" type="move" name="aboveUC"/>
    </contour>
    <contour>
      <point x="266" y="-22" type="move" name="belowLC"/>
    </contour>
  </outline>
</glyph>
<glyph name="Ezh" format="1">
  <advance width="554"/>
  <outline>
    <contour>
      <point x="269" y="-12" type="curve" smooth="yes"/>
      <point x="394" y="-12"/>
      <point x="517" y="65"/>
      <point x="517" y="205" type="curve" smooth="yes"/>
      <point x="517" y="327"/>
      <point x="420" y="399"/>
      <point x="285" y="390" type="curve"/>
      <point x="492" y="599" type="line"/>
      <point x="492" y="655" type="line"/>
      <point x="74" y="655" type="line"/>
      <point x="74" y="569" type="line"/>
      <point x="341" y="569" type="line"/>
      <point x="138" y="357" type="line"/>
      <point x="178" y="298" type="line"/>
      <point x="201" y="308"/>
      <point x="213" y="312"/>
      <point x="241" y="312" type="curve" smooth="yes"/>
      <point x="331" y="312"/>
      <point x="401" y="275"/>
      <point x="401" y="200" type="curve" smooth="yes"/>
      <point x="401" y="124"/>
      <point x="343" y="77"/>
      <point x="257" y="77" type="curve" smooth="yes"/>
      <point x="190" y="77"/>
      <point x="126" y="111"/>
      <point x="94" y="143" type="curve"/>
      <point x="41" y="74" type="line"/>
      <point x="83" y="34"/>
      <point x="167" y="-12"/>
    </contour>
    <contour>
      <point x="278" y="682" type="move" name="aboveUC"/>
    </contour>
    <contour>
      <point x="282" y="-22" type="move" name="belowLC"/>
    </contour>
  </outline>
</glyph>
<glyph name="Fhook.alt" format="1">
  <advance width="510"/>
  <outline>
    <contour>
      <point x="43" y="-174" type="curve" smooth="yes"/>
      <point x="154" y="-174"/>
      <point x="199" y="-97"/>
      <point x="199" y="8" type="curve" smooth="yes"/>
      <point x="199" y="273" type="line"/>
      <point x="437" y="273" type="line"/>
      <point x="437" y="371" type="line"/>
      <point x="199" y="371" type="line"/>
      <point x="199" y="556" type="line"/>
      <point x="478" y="556" type="line"/>
      <point x="478" y="654" type="line"/>
      <point x="83" y="654" type="line"/>
      <point x="83" y="0" type="line" smooth="yes"/>
      <point x="83" y="-47"/>
      <point x="71" y="-80"/>
      <point x="27" y="-80" type="curve" smooth="yes"/>
      <point x="12" y="-80"/>
      <point x="-2" y="-77"/>
      <point x="-16" y="-73" type="curve"/>
      <point x="-37" y="-160" type="line"/>
      <point x="-18" y="-168"/>
      <point x="7" y="-174"/>
    </contour>
  </outline>
</glyph>
<glyph name="Fhook" format="1">
  <advance width="576"/>
  <outline>
    <contour>
      <point x="266" y="337" type="line" smooth="yes"/>
      <point x="266" y="92"/>
      <point x="201" y="-12"/>
      <point x="76" y="-12" type="curve" smooth="yes"/>
      <point x="48" y="-12"/>
      <point x="11" y="-7"/>
      <point x="-8" y="5" type="curve"/>
      <point x="18" y="106" type="line"/>
      <point x="31" y="101"/>
      <point x="44" y="97"/>
      <point x="64" y="97" type="curve" smooth="yes"/>
      <point x="111" y="97"/>
      <point x="150" y="145"/>
      <point x="150" y="333" type="curve" smooth="yes"/>
      <point x="150" y="654" type="line"/>
      <point x="545" y="654" type="line"/>
      <point x="545" y="556" type="line"/>
      <point x="266" y="556" type="line"/>
    </contour>
    <contour>
      <point x="67" y="371" type="line"/>
      <point x="504" y="371" type="line"/>
      <point x="504" y="273" type="line"/>
      <point x="67" y="273" type="line"/>
    </contour>
  </outline>
</glyph>
<glyph name="Gammalatin" format="1">
  <advance width="536"/>
  <outline>
    <contour>
      <point x="200" y="263" type="line"/>
      <point x="337" y="263" type="line"/>
      <point x="540" y="654" type="line"/>
      <point x="421" y="654" type="line"/>
      <point x="330" y="458" type="line" smooth="yes"/>
      <point x="310" y="414"/>
      <point x="295" y="380"/>
      <point x="273" y="337" type="curve"/>
      <point x="269" y="337" type="line"/>
      <point x="247" y="380"/>
      <point x="232" y="414"/>
      <point x="211" y="458" type="curve" smooth="yes"/>
      <point x="119" y="654" type="line"/>
      <point x="-4" y="654" type="line"/>
    </contour>
    <contour>
      <point x="268" y="-12" type="curve" smooth="yes"/>
      <point x="356" y="-12"/>
      <point x="409" y="38"/>
      <point x="409" y="112" type="curve" smooth="yes"/>
      <point x="409" y="165"/>
      <point x="379" y="207"/>
      <point x="328" y="291" type="curve"/>
      <point x="208" y="291" type="line"/>
      <point x="158" y="207"/>
      <point x="128" y="165"/>
      <point x="128" y="112" type="curve" smooth="yes"/>
      <point x="128" y="38"/>
      <point x="181" y="-12"/>
    </contour>
    <contour>
      <point x="268" y="81" type="curve" smooth="yes"/>
      <point x="243" y="81"/>
      <point x="228" y="97"/>
      <point x="228" y="118" type="curve" smooth="yes"/>
      <point x="228" y="142"/>
      <point x="242" y="172"/>
      <point x="265" y="205" type="curve"/>
      <point x="270" y="205" type="line"/>
      <point x="295" y="172"/>
      <point x="309" y="143"/>
      <point x="309" y="118" type="curve" smooth="yes"/>
      <point x="309" y="97"/>
      <point x="294" y="81"/>
    </contour>
    <contour>
      <point x="268" y="676" type="move" name="aboveUC"/>
    </contour>
    <contour>
      <point x="267" y="-22" type="move" name="belowLC"/>
    </contour>
  </outline>
</glyph>
<glyph name="Ghe.sc" format="1">
  <advance width="460"/>
  <outline>
    <component base="Gamma.sc"/>
    <contour>
      <point x="272" y="544" type="move" name="aboveUC"/>
    </contour>
  </outline>
</glyph>
<glyph name="Glottalstoplatin" format="1">
  <advance width="457"/>
  <outline>
    <contour>
      <point x="149" y="0" type="line"/>
      <point x="264" y="0" type="line"/>
      <point x="264" y="222" type="line"/>
      <point x="378" y="285"/>
      <point x="446" y="353"/>
      <point x="446" y="467" type="curve" smooth="yes"/>
      <point x="446" y="599"/>
      <point x="342" y="666"/>
      <point x="213" y="666" type="curve" smooth="yes"/>
      <point x="106" y="666"/>
      <point x="39" y="619"/>
      <point x="-12" y="568" type="curve"/>
      <point x="46" y="494" type="line"/>
      <point x="85" y="536"/>
      <point x="132" y="572"/>
      <point x="202" y="572" type="curve" smooth="yes"/>
      <point x="283" y="572"/>
      <point x="330" y="531"/>
      <point x="330" y="463" type="curve" smooth="yes"/>
      <point x="330" y="386"/>
      <point x="286" y="333"/>
      <point x="149" y="268" type="curve"/>
    </contour>
  </outline>
</glyph>
<glyph name="Heng" format="1">
  <advance width="663"/>
  <outline>
    <contour>
      <point x="580" y="654" type="line"/>
      <point x="464" y="654" type="line"/>
      <point x="464" y="391" type="line"/>
      <point x="199" y="391" type="line"/>
      <point x="199" y="654" type="line"/>
      <point x="83" y="654" type="line"/>
      <point x="83" y="0" type="line"/>
      <point x="199" y="0" type="line"/>
      <point x="199" y="290" type="line"/>
      <point x="464" y="290" type="line"/>
      <point x="464" y="0" type="line" smooth="yes"/>
      <point x="464" y="-47"/>
      <point x="451" y="-80"/>
      <point x="407" y="-80" type="curve" smooth="yes"/>
      <point x="392" y="-80"/>
      <point x="378" y="-77"/>
      <point x="365" y="-73" type="curve"/>
      <point x="344" y="-160" type="line"/>
      <point x="362" y="-168"/>
      <point x="388" y="-174"/>
      <point x="423" y="-174" type="curve" smooth="yes"/>
      <point x="535" y="-174"/>
      <point x="580" y="-97"/>
      <point x="580" y="8" type="curve" smooth="yes"/>
    </contour>
    <contour>
      <point x="330" y="676" type="move" name="aboveUC"/>
    </contour>
    <contour>
      <point x="330" y="-22" type="move" name="belowLC"/>
    </contour>
  </outline>
</glyph>
<glyph name="Hhook.sc" format="1">
  <advance width="730"/>
  <outline>
    <contour>
      <point x="104" y="266" type="curve"/>
      <point x="141" y="319" type="line"/>
      <point x="123" y="332"/>
      <point x="114" y="349"/>
      <point x="114" y="377" type="curve" smooth="yes"/>
      <point x="114" y="415"/>
      <point x="141" y="438"/>
      <point x="185" y="438" type="curve" smooth="yes"/>
      <point x="294" y="438" type="line"/>
      <point x="322" y="523" type="line"/>
      <point x="206" y="523" type="line" smooth="yes"/>
      <point x="105" y="523"/>
      <point x="40" y="471"/>
      <point x="40" y="381" type="curve" smooth="yes"/>
      <point x="40" y="327"/>
      <point x="61" y="288"/>
    </contour>
    <component base="H.sc" xOffset="122"/>
    <contour>
      <point x="426" y="563" type="move" name="aboveUC"/>
    </contour>
    <contour>
      <point x="426" y="-22" type="move" name="belowLC"/>
    </contour>
  </outline>
</glyph>
<glyph name="Iota" format="1">
  <advance width="282"/>
  <outline>
    <component base="I"/>
    <contour>
      <point x="141" y="674" type="move" name="aboveUC"/>
    </contour>
  </outline>
</glyph>
<glyph name="Iotalatin" format="1">
  <advance width="350"/>
  <outline>
    <contour>
      <point x="266" y="-12" type="curve" smooth="yes"/>
      <point x="294" y="-12"/>
      <point x="329" y="-7"/>
      <point x="348" y="5" type="curve"/>
      <point x="322" y="106" type="line"/>
      <point x="310" y="101"/>
      <point x="296" y="97"/>
      <point x="279" y="97" type="curve" smooth="yes"/>
      <point x="232" y="97"/>
      <point x="198" y="136"/>
      <point x="198" y="307" type="curve" smooth="yes"/>
      <point x="198" y="654" type="line"/>
      <point x="82" y="654" type="line"/>
      <point x="82" y="310" type="line" smooth="yes"/>
      <point x="82" y="86"/>
      <point x="140" y="-12"/>
    </contour>
  </outline>
</glyph>
<glyph name="Istroke" format="1">
  <advance width="326"/>
  <outline>
    <contour>
      <point x="28" y="299" type="line"/>
      <point x="298" y="299" type="line"/>
      <point x="298" y="358" type="line"/>
      <point x="106" y="358" type="line"/>
      <point x="28" y="354" type="line"/>
    </contour>
    <component base="I" xOffset="22"/>
  </outline>
</glyph>
<glyph name="Jcrossedtail" format="1">
  <advance width="479"/>
  <outline>
    <contour>
      <point x="399" y="-16" type="curve"/>
      <point x="480" y="36" type="line"/>
      <point x="410" y="177"/>
      <point x="304" y="274"/>
      <point x="194" y="274" type="curve" smooth="yes"/>
      <point x="94" y="274"/>
      <point x="36" y="218"/>
      <point x="36" y="138" type="curve" smooth="yes"/>
      <point x="36" y="56"/>
      <point x="98" y="-12"/>
      <point x="199" y="-12" type="curve" smooth="yes"/>
      <point x="332" y="-12"/>
      <point x="398" y="83"/>
      <point x="398" y="205" type="curve" smooth="yes"/>
      <point x="398" y="654" type="line"/>
      <point x="282" y="654" type="line"/>
      <point x="282" y="204" type="line" smooth="yes"/>
      <point x="282" y="144"/>
      <point x="265" y="89"/>
      <point x="208" y="89" type="curve" smooth="yes"/>
      <point x="171" y="89"/>
      <point x="149" y="112"/>
      <point x="149" y="139" type="curve" smooth="yes"/>
      <point x="149" y="164"/>
      <point x="169" y="184"/>
      <point x="205" y="184" type="curve" smooth="yes"/>
      <point x="269" y="184"/>
      <point x="344" y="97"/>
    </contour>
    <contour>
      <point x="337" y="676" type="move" name="aboveUC"/>
    </contour>
    <contour>
      <point x="245" y="-22" type="move" name="belowLC"/>
    </contour>
  </outline>
</glyph>
<glyph name="Khook" format="1">
  <advance width="597"/>
  <outline>
    <contour>
      <point x="480" y="542" type="line" smooth="yes"/>
      <point x="492" y="557"/>
      <point x="504" y="563"/>
      <point x="517" y="563" type="curve" smooth="yes"/>
      <point x="540" y="563"/>
      <point x="555" y="546"/>
      <point x="566" y="530" type="curve"/>
      <point x="634" y="588" type="line"/>
      <point x="612" y="619"/>
      <point x="565" y="666"/>
      <point x="505" y="666" type="curve" smooth="yes"/>
      <point x="468" y="666"/>
      <point x="437" y="655"/>
      <point x="393" y="595" type="curve" smooth="yes"/>
      <point x="202" y="357" type="line"/>
      <point x="199" y="357" type="line"/>
      <point x="199" y="654" type="line"/>
      <point x="83" y="654" type="line"/>
      <point x="83" y="0" type="line"/>
      <point x="199" y="0" type="line"/>
      <point x="199" y="191" type="line"/>
      <point x="293" y="308" type="line"/>
      <point x="470" y="0" type="line"/>
      <point x="598" y="0" type="line"/>
      <point x="363" y="399" type="line"/>
    </contour>
  </outline>
</glyph>
<glyph name="Kturned" format="1">
  <advance width="597"/>
  <outline>
    <component base="K" xScale="-1.0" xOffset="597"/>
    <contour>
      <point x="242" y="260" type="move" name="aboveUC"/>
    </contour>
    <contour>
      <point x="258" y="394" type="move" name="belowLC"/>
    </contour>
  </outline>
</glyph>
<glyph name="L" format="1">
  <advance width="502"/>
  <outline>
    <contour>
      <point x="83" y="0" type="line"/>
      <point x="471" y="0" type="line"/>
      <point x="471" y="98" type="line"/>
      <point x="199" y="98" type="line"/>
      <point x="199" y="654" type="line"/>
      <point x="83" y="654" type="line"/>
    </contour>
    <contour>
      <point x="144" y="674" type="move" name="aboveUC"/>
    </contour>
    <contour>
      <point x="186" y="210" type="move" name="center"/>
    </contour>
    <contour>
      <point x="266" y="0" type="move" name="baseLC"/>
    </contour>
    <contour>
      <point x="290" y="-20" type="move" name="belowLC"/>
    </contour>
  </outline>
</glyph>
<glyph name="L.sc" format="1">
  <advance width="454"/>
  <outline>
    <contour>
      <point x="83" y="0" type="line"/>
      <point x="422" y="0" type="line"/>
      <point x="422" y="95" type="line"/>
      <point x="199" y="95" type="line"/>
      <point x="199" y="523" type="line"/>
      <point x="83" y="523" type="line"/>
    </contour>
    <contour>
      <point x="146" y="562" type="move" name="aboveUC"/>
    </contour>
    <contour>
      <point x="144" y="280" type="move" name="center"/>
    </contour>
    <contour>
      <point x="262" y="-20" type="move" name="belowLC"/>
    </contour>
  </outline>
</glyph>
<glyph name="Lbelt" format="1">
  <advance width="557"/>
  <outline>
    <contour>
      <point x="129" y="270" type="curve" smooth="yes"/>
      <point x="330" y="270" type="line"/>
      <point x="330" y="329" type="line"/>
      <point x="117" y="329" type="line" smooth="yes"/>
      <point x="76" y="329"/>
      <point x="58" y="346"/>
      <point x="58" y="365" type="curve" smooth="yes"/>
      <point x="58" y="383"/>
      <point x="67" y="397"/>
      <point x="90" y="397" type="curve" smooth="yes"/>
      <point x="128" y="397"/>
      <point x="138" y="358"/>
      <point x="138" y="333" type="curve"/>
      <point x="181" y="318" type="line"/>
      <point x="181" y="356"/>
      <point x="171" y="455"/>
      <point x="84" y="455" type="curve" smooth="yes"/>
      <point x="30" y="455"/>
      <point x="-8" y="417"/>
      <point x="-8" y="366" type="curve" smooth="yes"/>
      <point x="-8" y="312"/>
      <point x="34" y="270"/>
    </contour>
    <contour>
      <point x="138" y="0" type="line"/>
      <point x="526" y="0" type="line"/>
      <point x="526" y="98" type="line"/>
      <point x="254" y="98" type="line"/>
      <point x="254" y="654" type="line"/>
      <point x="138" y="654" type="line"/>
    </contour>
    <contour>
      <point x="198" y="676" type="move" name="aboveUC"/>
    </contour>
    <contour>
      <point x="345" y="-22" type="move" name="belowLC"/>
    </contour>
  </outline>
</glyph>
<glyph name="Lmiddletilde" format="1">
  <advance width="502"/>
  <outline>
    <component base="L"/>
    <component base="tildeoverlaycmb" xOffset="186" yOffset="-36"/>
    <contour>
      <point x="144" y="674" type="move" name="aboveUC"/>
    </contour>
    <contour>
      <point x="290" y="-20" type="move" name="belowLC"/>
    </contour>
  </outline>
</glyph>
<glyph name="Nhookleft.alt" format="1">
  <advance width="656"/>
  <outline>
    <contour>
      <point x="43" y="-174" type="curve" smooth="yes"/>
      <point x="154" y="-174"/>
      <point x="194" y="-97"/>
      <point x="194" y="8" type="curve" smooth="yes"/>
      <point x="194" y="286" type="line" smooth="yes"/>
      <point x="194" y="359"/>
      <point x="184" y="438"/>
      <point x="179" y="507" type="curve"/>
      <point x="183" y="507" type="line"/>
      <point x="250" y="368" type="line"/>
      <point x="454" y="0" type="line"/>
      <point x="573" y="0" type="line"/>
      <point x="573" y="654" type="line"/>
      <point x="462" y="654" type="line"/>
      <point x="462" y="370" type="line" smooth="yes"/>
      <point x="462" y="297"/>
      <point x="472" y="214"/>
      <point x="477" y="147" type="curve"/>
      <point x="473" y="147" type="line"/>
      <point x="406" y="286" type="line"/>
      <point x="202" y="654" type="line"/>
      <point x="83" y="654" type="line"/>
      <point x="83" y="0" type="line" smooth="yes"/>
      <point x="83" y="-47"/>
      <point x="71" y="-80"/>
      <point x="27" y="-80" type="curve" smooth="yes"/>
      <point x="12" y="-80"/>
      <point x="-2" y="-77"/>
      <point x="-16" y="-73" type="curve"/>
      <point x="-37" y="-160" type="line"/>
      <point x="-18" y="-168"/>
      <point x="7" y="-174"/>
    </contour>
    <contour>
      <point x="330" y="676" type="move" name="aboveUC"/>
    </contour>
  </outline>
</glyph>
<glyph name="Nhookleft" format="1">
  <advance width="718"/>
  <outline>
    <contour>
      <point x="76" y="-12" type="curve" smooth="yes"/>
      <point x="202" y="-12"/>
      <point x="266" y="93"/>
      <point x="266" y="335" type="curve" smooth="yes"/>
      <point x="266" y="476" type="line"/>
      <point x="302" y="531"/>
      <point x="364" y="565"/>
      <point x="410" y="565" type="curve" smooth="yes"/>
      <point x="500" y="565"/>
      <point x="538" y="500"/>
      <point x="538" y="350" type="curve" smooth="yes"/>
      <point x="538" y="0" type="line"/>
      <point x="654" y="0" type="line"/>
      <point x="654" y="379" type="line" smooth="yes"/>
      <point x="654" y="578"/>
      <point x="575" y="666"/>
      <point x="443" y="666" type="curve" smooth="yes"/>
      <point x="375" y="666"/>
      <point x="311" y="632"/>
      <point x="262" y="578" type="curve"/>
      <point x="262" y="654" type="line"/>
      <point x="150" y="654" type="line"/>
      <point x="150" y="332" type="line" smooth="yes"/>
      <point x="150" y="145"/>
      <point x="111" y="97"/>
      <point x="64" y="97" type="curve" smooth="yes"/>
      <point x="44" y="97"/>
      <point x="31" y="101"/>
      <point x="18" y="106" type="curve"/>
      <point x="-8" y="5" type="line"/>
      <point x="11" y="-7"/>
      <point x="48" y="-12"/>
    </contour>
    <contour>
      <point x="426" y="676" type="move" name="aboveUC"/>
    </contour>
  </outline>
</glyph>
<glyph name="Nlegrightlong" format="1">
  <advance width="659"/>
  <outline>
    <contour>
      <point x="476" y="-188" type="line"/>
      <point x="593" y="-188" type="line"/>
      <point x="593" y="333" type="line" smooth="yes"/>
      <point x="593" y="577"/>
      <point x="505" y="666"/>
      <point x="376" y="666" type="curve" smooth="yes"/>
      <point x="308" y="666"/>
      <point x="244" y="632"/>
      <point x="196" y="578" type="curve"/>
      <point x="196" y="654" type="line"/>
      <point x="83" y="654" type="line"/>
      <point x="83" y="0" type="line"/>
      <point x="199" y="0" type="line"/>
      <point x="199" y="476" type="line"/>
      <point x="235" y="531"/>
      <point x="297" y="565"/>
      <point x="344" y="565" type="curve" smooth="yes"/>
      <point x="428" y="565"/>
      <point x="476" y="506"/>
      <point x="476" y="333" type="curve" smooth="yes"/>
    </contour>
    <contour>
      <point x="359" y="676" type="move" name="aboveUC"/>
    </contour>
  </outline>
</glyph>
<glyph name="Ohorn.sc" format="1">
  <advance width="603"/>
  <outline>
    <component base="O.sc"/>
    <component base="horncmb" xOffset="421" yOffset="32"/>
    <contour>
      <point x="302" y="562" type="move" name="aboveUC"/>
    </contour>
    <contour>
      <point x="303" y="-20" type="move" name="belowLC"/>
    </contour>
  </outline>
</glyph>
<glyph name="Omegalatin" format="1">
  <advance width="849"/>
  <outline>
    <contour>
      <point x="268" y="-12" type="curve" smooth="yes"/>
      <point x="334" y="-12"/>
      <point x="392" y="22"/>
      <point x="422" y="108" type="curve"/>
      <point x="427" y="108" type="line"/>
      <point x="456" y="22"/>
      <point x="519" y="-12"/>
      <point x="585" y="-12" type="curve" smooth="yes"/>
      <point x="712" y="-12"/>
      <point x="790" y="105"/>
      <point x="790" y="324" type="curve" smooth="yes"/>
      <point x="790" y="465"/>
      <point x="750" y="566"/>
      <point x="692" y="664" type="curve"/>
      <point x="587" y="613" type="line"/>
      <point x="650" y="516"/>
      <point x="671" y="444"/>
      <point x="671" y="314" type="curve" smooth="yes"/>
      <point x="671" y="164"/>
      <point x="628" y="89"/>
      <point x="569" y="89" type="curve" smooth="yes"/>
      <point x="513" y="89"/>
      <point x="475" y="126"/>
      <point x="475" y="243" type="curve" smooth="yes"/>
      <point x="477" y="423" type="line"/>
      <point x="374" y="423" type="line"/>
      <point x="374" y="246" type="line" smooth="yes"/>
      <point x="374" y="135"/>
      <point x="334" y="89"/>
      <point x="279" y="89" type="curve" smooth="yes"/>
      <point x="218" y="89"/>
      <point x="178" y="166"/>
      <point x="178" y="291" type="curve" smooth="yes"/>
      <point x="178" y="426"/>
      <point x="202" y="512"/>
      <point x="261" y="609" type="curve"/>
      <point x="158" y="664" type="line"/>
      <point x="102" y="567"/>
      <point x="59" y="441"/>
      <point x="59" y="319" type="curve" smooth="yes"/>
      <point x="59" y="102"/>
      <point x="145" y="-12"/>
    </contour>
    <contour>
      <point x="425" y="676" type="move" name="aboveUC"/>
    </contour>
    <contour>
      <point x="425" y="-22" type="move" name="belowLC"/>
    </contour>
  </outline>
</glyph>
<glyph name="Omicron" format="1">
  <advance width="674"/>
  <outline>
    <component base="O"/>
    <contour>
      <point x="337" y="674" type="move" name="aboveUC"/>
    </contour>
  </outline>
</glyph>
<glyph name="Omicron.sc" format="1">
  <advance width="603"/>
  <outline>
    <component base="O.sc"/>
    <contour>
      <point x="302" y="562" type="move" name="aboveLC"/>
    </contour>
    <contour>
      <point x="303" y="-20" type="move" name="belowLC"/>
    </contour>
  </outline>
</glyph>
<glyph name="Oopen" format="1">
  <advance width="576"/>
  <outline>
    <contour>
      <point x="241" y="-12" type="curve" smooth="yes"/>
      <point x="393" y="-12"/>
      <point x="528" y="98"/>
      <point x="528" y="325" type="curve" smooth="yes"/>
      <point x="528" y="552"/>
      <point x="398" y="666"/>
      <point x="243" y="666" type="curve" smooth="yes"/>
      <point x="159" y="666"/>
      <point x="84" y="627"/>
      <point x="40" y="583" type="curve"/>
      <point x="102" y="508" type="line"/>
      <point x="139" y="543"/>
      <point x="184" y="565"/>
      <point x="237" y="565" type="curve" smooth="yes"/>
      <point x="336" y="565"/>
      <point x="408" y="488"/>
      <point x="408" y="331" type="curve" smooth="yes"/>
      <point x="408" y="165"/>
      <point x="333" y="89"/>
      <point x="239" y="89" type="curve" smooth="yes"/>
      <point x="176" y="89"/>
      <point x="129" y="116"/>
      <point x="89" y="156" type="curve"/>
      <point x="27" y="83" type="line"/>
      <point x="84" y="22"/>
      <point x="154" y="-12"/>
    </contour>
    <contour>
      <point x="259" y="676" type="move" name="aboveUC"/>
    </contour>
    <contour>
      <point x="248" y="0" type="move" name="baseLC"/>
    </contour>
    <contour>
      <point x="248" y="-22" type="move" name="belowLC"/>
    </contour>
  </outline>
</glyph>
<glyph name="Oopen.sc" format="1">
  <advance width="512"/>
  <outline>
    <contour>
      <point x="207" y="-12" type="curve" smooth="yes"/>
      <point x="349" y="-12"/>
      <point x="463" y="81"/>
      <point x="463" y="259" type="curve" smooth="yes"/>
      <point x="463" y="433"/>
      <point x="344" y="535"/>
      <point x="199" y="535" type="curve" smooth="yes"/>
      <point x="130" y="535"/>
      <point x="73" y="504"/>
      <point x="36" y="467" type="curve"/>
      <point x="99" y="397" type="line"/>
      <point x="128" y="424"/>
      <point x="157" y="439"/>
      <point x="197" y="439" type="curve" smooth="yes"/>
      <point x="283" y="439"/>
      <point x="345" y="373"/>
      <point x="345" y="263" type="curve" smooth="yes"/>
      <point x="345" y="148"/>
      <point x="289" y="84"/>
      <point x="201" y="84" type="curve" smooth="yes"/>
      <point x="154" y="84"/>
      <point x="119" y="103"/>
      <point x="90" y="132" type="curve"/>
      <point x="27" y="64" type="line"/>
      <point x="74" y="13"/>
      <point x="135" y="-12"/>
    </contour>
    <contour>
      <point x="218" y="571" type="move" name="aboveUC"/>
    </contour>
    <contour>
      <point x="219" y="0" type="move" name="baseLC"/>
    </contour>
    <contour>
      <point x="219" y="-22" type="move" name="belowLC"/>
    </contour>
  </outline>
</glyph>
<glyph name="Oopen.sups" format="1">
  <advance width="385"/>
  <outline>
    <contour>
      <point x="156" y="377" type="curve" smooth="yes"/>
      <point x="266" y="377"/>
      <point x="354" y="455"/>
      <point x="354" y="598" type="curve" smooth="yes"/>
      <point x="354" y="739"/>
      <point x="262" y="825"/>
      <point x="150" y="825" type="curve" smooth="yes"/>
      <point x="95" y="825"/>
      <point x="51" y="800"/>
      <point x="24" y="769" type="curve"/>
      <point x="70" y="718" type="line"/>
      <point x="93" y="739"/>
      <point x="116" y="752"/>
      <point x="148" y="752" type="curve" smooth="yes"/>
      <point x="218" y="752"/>
      <point x="267" y="694"/>
      <point x="267" y="601" type="curve" smooth="yes"/>
      <point x="267" y="506"/>
      <point x="222" y="448"/>
      <point x="151" y="448" type="curve" smooth="yes"/>
      <point x="113" y="448"/>
      <point x="85" y="464"/>
      <point x="62" y="491" type="curve"/>
      <point x="16" y="441" type="line"/>
      <point x="51" y="399"/>
      <point x="98" y="377"/>
    </contour>
  </outline>
</glyph>
<glyph name="Oslash" format="1">
  <advance width="674"/>
  <outline>
    <contour>
      <point x="106" y="-36" type="line"/>
      <point x="640" y="642" type="line"/>
      <point x="578" y="690" type="line"/>
      <point x="45" y="12" type="line"/>
    </contour>
    <component base="O" xOffset="2"/>
    <contour>
      <point x="339" y="674" type="move" name="aboveUC"/>
    </contour>
    <contour>
      <point x="337" y="0" type="move" name="baseLC"/>
    </contour>
  </outline>
</glyph>
<glyph name="Phook" format="1">
  <advance width="726"/>
  <outline>
    <contour>
      <point x="433" y="654" type="line"/>
      <point x="227" y="654" type="line" smooth="yes"/>
      <point x="109" y="654"/>
      <point x="34" y="596"/>
      <point x="34" y="494" type="curve" smooth="yes"/>
      <point x="34" y="434"/>
      <point x="58" y="390"/>
      <point x="105" y="365" type="curve"/>
      <point x="145" y="422" type="line"/>
      <point x="126" y="437"/>
      <point x="114" y="456"/>
      <point x="114" y="487" type="curve" smooth="yes"/>
      <point x="114" y="537"/>
      <point x="149" y="563"/>
      <point x="203" y="563" type="curve" smooth="yes"/>
      <point x="372" y="563" type="line"/>
    </contour>
    <component base="P" xOffset="144"/>
    <contour>
      <point x="454" y="676" type="move" name="aboveUC"/>
    </contour>
    <contour>
      <point x="293" y="-22" type="move" name="belowLC"/>
    </contour>
  </outline>
</glyph>
<glyph name="Phook.sc" format="1">
  <advance width="658"/>
  <outline>
    <contour>
      <point x="104" y="266" type="curve"/>
      <point x="143" y="319" type="line"/>
      <point x="126" y="331"/>
      <point x="116" y="348"/>
      <point x="116" y="374" type="curve" smooth="yes"/>
      <point x="116" y="411"/>
      <point x="144" y="433"/>
      <point x="186" y="433" type="curve" smooth="yes"/>
      <point x="326" y="433" type="line"/>
      <point x="375" y="523" type="line"/>
      <point x="206" y="523" type="line" smooth="yes"/>
      <point x="105" y="523"/>
      <point x="40" y="471"/>
      <point x="40" y="381" type="curve" smooth="yes"/>
      <point x="40" y="327"/>
      <point x="61" y="288"/>
    </contour>
    <component base="P.sc" xOffset="122"/>
    <contour>
      <point x="416" y="563" type="move" name="aboveUC"/>
    </contour>
    <contour>
      <point x="272" y="-22" type="move" name="belowLC"/>
    </contour>
  </outline>
</glyph>
<glyph name="Rho" format="1">
  <advance width="582"/>
  <outline>
    <component base="P"/>
    <contour>
      <point x="309" y="674" type="move" name="aboveUC"/>
    </contour>
  </outline>
</glyph>
<glyph name="Rstroke" format="1">
  <advance width="614"/>
  <outline>
    <contour>
      <point x="28" y="289" type="line"/>
      <point x="358" y="289" type="line"/>
      <point x="358" y="348" type="line"/>
      <point x="105" y="348" type="line"/>
      <point x="28" y="344" type="line"/>
    </contour>
    <component base="R" xOffset="22"/>
  </outline>
</glyph>
<glyph name="Rtail.alt" format="1">
  <advance width="592"/>
  <outline>
    <contour>
      <point x="83" y="16" type="line"/>
      <point x="199" y="0" type="line"/>
      <point x="199" y="256" type="line"/>
      <point x="304" y="256" type="line" smooth="yes"/>
      <point x="440" y="256"/>
      <point x="544" y="319"/>
      <point x="544" y="460" type="curve" smooth="yes"/>
      <point x="544" y="606"/>
      <point x="440" y="654"/>
      <point x="304" y="654" type="curve" smooth="yes"/>
      <point x="83" y="654" type="line"/>
    </contour>
    <contour>
      <point x="199" y="348" type="line"/>
      <point x="199" y="561" type="line"/>
      <point x="292" y="561" type="line" smooth="yes"/>
      <point x="381" y="561"/>
      <point x="430" y="535"/>
      <point x="430" y="460" type="curve" smooth="yes"/>
      <point x="430" y="386"/>
      <point x="381" y="348"/>
      <point x="292" y="348" type="curve" smooth="yes"/>
    </contour>
    <contour>
      <point x="440" y="0" type="line"/>
      <point x="570" y="0" type="line"/>
      <point x="366" y="356" type="line"/>
      <point x="282" y="287" type="line"/>
    </contour>
    <contour>
      <point x="199" y="614" type="line"/>
      <point x="83" y="654" type="line"/>
      <point x="83" y="8" type="line" smooth="yes"/>
      <point x="83" y="-97"/>
      <point x="128" y="-174"/>
      <point x="240" y="-174" type="curve" smooth="yes"/>
      <point x="275" y="-174"/>
      <point x="300" y="-168"/>
      <point x="319" y="-160" type="curve"/>
      <point x="298" y="-73" type="line"/>
      <point x="285" y="-77"/>
      <point x="271" y="-80"/>
      <point x="256" y="-80" type="curve" smooth="yes"/>
      <point x="212" y="-80"/>
      <point x="199" y="-47"/>
      <point x="199" y="0" type="curve" smooth="yes"/>
    </contour>
  </outline>
</glyph>
<glyph name="Rtail" format="1">
  <advance width="438"/>
  <outline>
    <contour>
      <point x="240" y="-12" type="curve" smooth="yes"/>
      <point x="275" y="-12"/>
      <point x="300" y="-6"/>
      <point x="319" y="1" type="curve"/>
      <point x="298" y="89" type="line"/>
      <point x="285" y="85"/>
      <point x="271" y="81"/>
      <point x="256" y="81" type="curve" smooth="yes"/>
      <point x="212" y="81"/>
      <point x="199" y="114"/>
      <point x="199" y="162" type="curve" smooth="yes"/>
      <point x="199" y="435" type="line"/>
      <point x="237" y="531"/>
      <point x="298" y="570"/>
      <point x="348" y="570" type="curve" smooth="yes"/>
      <point x="374" y="570"/>
      <point x="390" y="566"/>
      <point x="412" y="560" type="curve"/>
      <point x="437" y="654" type="line"/>
      <point x="418" y="663"/>
      <point x="398" y="667"/>
      <point x="366" y="667" type="curve" smooth="yes"/>
      <point x="299" y="667"/>
      <point x="233" y="621"/>
      <point x="188" y="542" type="curve"/>
      <point x="185" y="542" type="line"/>
      <point x="174" y="654" type="line"/>
      <point x="83" y="654" type="line"/>
      <point x="83" y="169" type="line" smooth="yes"/>
      <point x="83" y="65"/>
      <point x="128" y="-12"/>
    </contour>
  </outline>
</glyph>
<glyph name="Saltillo" format="1">
  <advance width="315"/>
  <outline>
    <contour>
      <point x="119" y="215" type="line"/>
      <point x="196" y="215" type="line"/>
      <point x="212" y="540" type="line"/>
      <point x="216" y="654" type="line"/>
      <point x="100" y="654" type="line"/>
      <point x="103" y="540" type="line"/>
    </contour>
  </outline>
</glyph>
<glyph name="Tbar" format="1">
  <advance width="546"/>
  <outline>
    <contour>
      <point x="215" y="0" type="line"/>
      <point x="331" y="0" type="line"/>
      <point x="331" y="556" type="line"/>
      <point x="520" y="556" type="line"/>
      <point x="520" y="654" type="line"/>
      <point x="26" y="654" type="line"/>
      <point x="26" y="556" type="line"/>
      <point x="215" y="556" type="line"/>
    </contour>
    <contour>
      <point x="94" y="299" type="line"/>
      <point x="452" y="299" type="line"/>
      <point x="452" y="358" type="line"/>
      <point x="186" y="358" type="line"/>
      <point x="94" y="354" type="line"/>
    </contour>
    <contour>
      <point x="273" y="674" type="move" name="aboveUC"/>
    </contour>
    <contour>
      <point x="273" y="-20" type="move" name="belowLC"/>
    </contour>
  </outline>
</glyph>
<glyph name="Thook" format="1">
  <advance width="600"/>
  <outline>
    <contour>
      <point x="269" y="0" type="line"/>
      <point x="385" y="0" type="line"/>
      <point x="385" y="556" type="line"/>
      <point x="574" y="556" type="line"/>
      <point x="574" y="654" type="line"/>
      <point x="227" y="654" type="line" smooth="yes"/>
      <point x="109" y="654"/>
      <point x="34" y="596"/>
      <point x="34" y="494" type="curve" smooth="yes"/>
      <point x="34" y="434"/>
      <point x="58" y="390"/>
      <point x="105" y="365" type="curve"/>
      <point x="145" y="422" type="line"/>
      <point x="126" y="436"/>
      <point x="114" y="454"/>
      <point x="114" y="483" type="curve" smooth="yes"/>
      <point x="114" y="531"/>
      <point x="149" y="556"/>
      <point x="203" y="556" type="curve" smooth="yes"/>
      <point x="269" y="556" type="line"/>
    </contour>
  </outline>
</glyph>
<glyph name="Thook.sc" format="1">
  <advance width="535"/>
  <outline>
    <contour>
      <point x="104" y="266" type="curve"/>
      <point x="146" y="319" type="line"/>
      <point x="128" y="330"/>
      <point x="119" y="347"/>
      <point x="119" y="372" type="curve" smooth="yes"/>
      <point x="119" y="408"/>
      <point x="145" y="428"/>
      <point x="194" y="428" type="curve" smooth="yes"/>
      <point x="335" y="428" type="line"/>
      <point x="375" y="523" type="line"/>
      <point x="206" y="523" type="line" smooth="yes"/>
      <point x="105" y="523"/>
      <point x="40" y="471"/>
      <point x="40" y="381" type="curve" smooth="yes"/>
      <point x="40" y="327"/>
      <point x="61" y="288"/>
    </contour>
    <contour>
      <point x="238" y="0" type="line"/>
      <point x="354" y="0" type="line"/>
      <point x="354" y="428" type="line"/>
      <point x="509" y="428" type="line"/>
      <point x="509" y="523" type="line"/>
      <point x="206" y="523" type="line"/>
      <point x="194" y="428" type="line"/>
      <point x="238" y="428" type="line"/>
    </contour>
    <contour>
      <point x="296" y="563" type="move" name="aboveUC"/>
    </contour>
    <contour>
      <point x="293" y="0" type="move" name="baseLC"/>
    </contour>
    <contour>
      <point x="296" y="-22" type="move" name="belowLC"/>
    </contour>
  </outline>
</glyph>
<glyph name="Tretroflex" format="1">
  <advance width="546"/>
  <outline>
    <contour>
      <point x="372" y="-12" type="curve" smooth="yes"/>
      <point x="408" y="-12"/>
      <point x="433" y="-6"/>
      <point x="452" y="1" type="curve"/>
      <point x="431" y="89" type="line"/>
      <point x="417" y="85"/>
      <point x="403" y="81"/>
      <point x="388" y="81" type="curve" smooth="yes"/>
      <point x="344" y="81"/>
      <point x="331" y="114"/>
      <point x="331" y="162" type="curve" smooth="yes"/>
      <point x="331" y="556" type="line"/>
      <point x="520" y="556" type="line"/>
      <point x="520" y="654" type="line"/>
      <point x="26" y="654" type="line"/>
      <point x="26" y="556" type="line"/>
      <point x="215" y="556" type="line"/>
      <point x="216" y="169" type="line" smooth="yes"/>
      <point x="216" y="65"/>
      <point x="261" y="-12"/>
    </contour>
  </outline>
</glyph>
<glyph name="Ubar" format="1">
  <advance width="699"/>
  <outline>
    <contour>
      <point x="28" y="324" type="line"/>
      <point x="671" y="324" type="line"/>
      <point x="671" y="383" type="line"/>
      <point x="107" y="383" type="line"/>
      <point x="28" y="378" type="line"/>
    </contour>
    <component base="U" xOffset="23"/>
  </outline>
</glyph>
<glyph name="Upsilon" format="1">
  <advance width="501"/>
  <outline>
    <component base="Y"/>
    <contour>
      <point x="250" y="674" type="move" name="aboveUC"/>
    </contour>
  </outline>
</glyph>
<glyph name="Upsilonlatin" format="1">
  <advance width="695"/>
  <outline>
    <contour>
      <point x="45" y="654" type="line"/>
      <point x="45" y="560" type="line"/>
      <point x="165" y="560" type="line"/>
      <point x="165" y="556" type="line"/>
      <point x="115" y="506"/>
      <point x="59" y="419"/>
      <point x="59" y="300" type="curve" smooth="yes"/>
      <point x="59" y="117"/>
      <point x="174" y="-12"/>
      <point x="348" y="-12" type="curve" smooth="yes"/>
      <point x="521" y="-12"/>
      <point x="636" y="117"/>
      <point x="636" y="300" type="curve" smooth="yes"/>
      <point x="636" y="419"/>
      <point x="580" y="506"/>
      <point x="530" y="556" type="curve"/>
      <point x="530" y="560" type="line"/>
      <point x="650" y="560" type="line"/>
      <point x="650" y="654" type="line"/>
      <point x="400" y="654" type="line"/>
      <point x="400" y="570" type="line"/>
      <point x="471" y="509"/>
      <point x="517" y="429"/>
      <point x="517" y="310" type="curve" smooth="yes"/>
      <point x="517" y="182"/>
      <point x="454" y="89"/>
      <point x="348" y="89" type="curve" smooth="yes"/>
      <point x="242" y="89"/>
      <point x="178" y="182"/>
      <point x="178" y="310" type="curve" smooth="yes"/>
      <point x="178" y="429"/>
      <point x="224" y="509"/>
      <point x="295" y="570" type="curve"/>
      <point x="295" y="654" type="line"/>
    </contour>
  </outline>
</glyph>
<glyph name="Upsilonlatin.sc" format="1">
  <advance width="613"/>
  <outline>
    <contour>
      <point x="44" y="523" type="line"/>
      <point x="44" y="432" type="line"/>
      <point x="141" y="432" type="line"/>
      <point x="141" y="429" type="line"/>
      <point x="102" y="392"/>
      <point x="55" y="326"/>
      <point x="55" y="238" type="curve" smooth="yes"/>
      <point x="55" y="93"/>
      <point x="156" y="-12"/>
      <point x="306" y="-12" type="curve" smooth="yes"/>
      <point x="457" y="-12"/>
      <point x="558" y="93"/>
      <point x="558" y="238" type="curve" smooth="yes"/>
      <point x="558" y="326"/>
      <point x="511" y="392"/>
      <point x="472" y="429" type="curve"/>
      <point x="472" y="432" type="line"/>
      <point x="569" y="432" type="line"/>
      <point x="569" y="523" type="line"/>
      <point x="348" y="523" type="line"/>
      <point x="348" y="442" type="line"/>
      <point x="406" y="392"/>
      <point x="442" y="333"/>
      <point x="442" y="248" type="curve" smooth="yes"/>
      <point x="442" y="151"/>
      <point x="390" y="83"/>
      <point x="306" y="83" type="curve" smooth="yes"/>
      <point x="223" y="83"/>
      <point x="172" y="151"/>
      <point x="172" y="248" type="curve" smooth="yes"/>
      <point x="172" y="333"/>
      <point x="207" y="392"/>
      <point x="265" y="442" type="curve"/>
      <point x="265" y="523" type="line"/>
    </contour>
  </outline>
</glyph>
<glyph name="Vhook" format="1">
  <advance width="660"/>
  <outline>
    <contour>
      <point x="329" y="-12" type="curve" smooth="yes"/>
      <point x="515" y="-12"/>
      <point x="611" y="153"/>
      <point x="611" y="389" type="curve" smooth="yes"/>
      <point x="611" y="580"/>
      <point x="530" y="665"/>
      <point x="416" y="665" type="curve" smooth="yes"/>
      <point x="384" y="665"/>
      <point x="361" y="663"/>
      <point x="339" y="655" type="curve"/>
      <point x="359" y="558" type="line"/>
      <point x="371" y="563"/>
      <point x="382" y="565"/>
      <point x="395" y="565" type="curve" smooth="yes"/>
      <point x="463" y="565"/>
      <point x="492" y="500"/>
      <point x="492" y="367" type="curve" smooth="yes"/>
      <point x="492" y="199"/>
      <point x="438" y="89"/>
      <point x="335" y="89" type="curve" smooth="yes"/>
      <point x="252" y="89"/>
      <point x="194" y="144"/>
      <point x="194" y="278" type="curve" smooth="yes"/>
      <point x="194" y="654" type="line"/>
      <point x="83" y="654" type="line"/>
      <point x="83" y="279" type="line" smooth="yes"/>
      <point x="83" y="82"/>
      <point x="183" y="-12"/>
    </contour>
  </outline>
</glyph>
<glyph name="Whook" format="1">
  <advance width="883"/>
  <outline>
    <contour>
      <point x="148" y="0" type="line"/>
      <point x="289" y="0" type="line"/>
      <point x="368" y="344" type="line"/>
      <point x="379" y="395"/>
      <point x="389" y="445"/>
      <point x="398" y="495" type="curve"/>
      <point x="402" y="495" type="line"/>
      <point x="410" y="445"/>
      <point x="420" y="395"/>
      <point x="431" y="344" type="curve"/>
      <point x="512" y="0" type="line"/>
      <point x="656" y="0" type="line"/>
      <point x="754" y="498" type="line" smooth="yes"/>
      <point x="762" y="544"/>
      <point x="779" y="563"/>
      <point x="803" y="563" type="curve" smooth="yes"/>
      <point x="825" y="563"/>
      <point x="839" y="546"/>
      <point x="849" y="530" type="curve"/>
      <point x="917" y="588" type="line"/>
      <point x="894" y="619"/>
      <point x="847" y="666"/>
      <point x="788" y="666" type="curve" smooth="yes"/>
      <point x="729" y="666"/>
      <point x="673" y="633"/>
      <point x="652" y="520" type="curve" smooth="yes"/>
      <point x="613" y="324" type="line"/>
      <point x="603" y="255"/>
      <point x="592" y="185"/>
      <point x="582" y="115" type="curve"/>
      <point x="578" y="115" type="line"/>
      <point x="563" y="185"/>
      <point x="549" y="256"/>
      <point x="534" y="324" type="curve"/>
      <point x="454" y="654" type="line"/>
      <point x="353" y="654" type="line"/>
      <point x="273" y="324" type="line"/>
      <point x="258" y="255"/>
      <point x="244" y="184"/>
      <point x="230" y="115" type="curve"/>
      <point x="226" y="115" type="line"/>
      <point x="216" y="184"/>
      <point x="205" y="254"/>
      <point x="194" y="324" type="curve"/>
      <point x="137" y="654" type="line"/>
      <point x="18" y="654" type="line"/>
    </contour>
  </outline>
</glyph>
<glyph name="Yhook" format="1">
  <advance width="569"/>
  <outline>
    <contour>
      <point x="192" y="0" type="line"/>
      <point x="308" y="0" type="line"/>
      <point x="308" y="243" type="line"/>
      <point x="440" y="517" type="line" smooth="yes"/>
      <point x="450" y="538"/>
      <point x="463" y="563"/>
      <point x="488" y="563" type="curve" smooth="yes"/>
      <point x="509" y="563"/>
      <point x="524" y="546"/>
      <point x="534" y="530" type="curve"/>
      <point x="602" y="588" type="line"/>
      <point x="579" y="619"/>
      <point x="532" y="666"/>
      <point x="472" y="666" type="curve" smooth="yes"/>
      <point x="414" y="666"/>
      <point x="371" y="623"/>
      <point x="341" y="543" type="curve" smooth="yes"/>
      <point x="253" y="343" type="line"/>
      <point x="249" y="343" type="line"/>
      <point x="228" y="393"/>
      <point x="210" y="438"/>
      <point x="191" y="487" type="curve"/>
      <point x="120" y="654" type="line"/>
      <point x="-4" y="654" type="line"/>
      <point x="192" y="243" type="line"/>
    </contour>
  </outline>
</glyph>
<glyph name="Zeta.sc" format="1">
  <advance width="478"/>
  <outline>
    <component base="Z.sc"/>
    <contour>
      <point x="253" y="562" type="move" name="aboveLC"/>
    </contour>
    <contour>
      <point x="253" y="-20" type="move" name="belowLC"/>
    </contour>
  </outline>
</glyph>
<glyph name="adieresis.a" format="1">
  <advance width="564"/>
  <outline>
    <component base="dieresiscmb" xOffset="294"/>
    <contour>
      <point x="356" y="0" type="move" name="ogonekLC"/>
    </contour>
  </outline>
</glyph>
<glyph name="alphalatin" format="1">
  <advance width="564"/>
  <outline>
    <contour>
      <point x="245" y="-12" type="curve" smooth="yes"/>
      <point x="299" y="-12"/>
      <point x="353" y="19"/>
      <point x="388" y="57" type="curve"/>
      <point x="391" y="57" type="line"/>
      <point x="402" y="33"/>
      <point x="425" y="14"/>
      <point x="456" y="14" type="curve" smooth="yes"/>
      <point x="475" y="-5"/>
      <point x="493" y="-10"/>
      <point x="515" y="-5" type="curve"/>
      <point x="520" y="-5"/>
      <point x="524" y="73"/>
      <point x="528" y="74" type="curve"/>
      <point x="524" y="72"/>
      <point x="519" y="83"/>
      <point x="518" y="83" type="curve" smooth="yes"/>
      <point x="507" y="82"/>
      <point x="500" y="87"/>
      <point x="499" y="102" type="curve" smooth="yes"/>
      <point x="494" y="102"/>
      <point x="491" y="310"/>
      <point x="491" y="318" type="curve"/>
      <point x="410" y="491" type="line"/>
      <point x="391" y="461" type="line"/>
      <point x="388" y="443" type="line"/>
      <point x="365" y="469"/>
      <point x="340" y="480"/>
      <point x="311" y="480" type="curve" smooth="yes"/>
      <point x="232" y="494"/>
      <point x="152" y="444"/>
      <point x="129" y="346" type="curve" smooth="yes"/>
      <point x="82" y="249"/>
      <point x="91" y="150"/>
    </contour>
    <contour>
      <point x="273" y="83" type="curve" smooth="yes"/>
      <point x="202" y="83"/>
      <point x="162" y="140"/>
      <point x="162" y="246" type="curve" smooth="yes"/>
      <point x="162" y="349"/>
      <point x="213" y="408"/>
      <point x="276" y="408" type="curve" smooth="yes"/>
      <point x="309" y="408"/>
      <point x="342" y="397"/>
      <point x="376" y="367" type="curve"/>
      <point x="376" y="138" type="line"/>
      <point x="343" y="100"/>
      <point x="311" y="83"/>
    </contour>
    <contour>
      <point x="291" y="514" type="move" name="aboveLC"/>
    </contour>
    <contour>
      <point x="282" y="0" type="move" name="baseLC"/>
    </contour>
    <contour>
      <point x="292" y="-22" type="move" name="belowLC"/>
    </contour>
  </outline>
</glyph>
<glyph name="betalatin" format="1">
  <advance width="583"/>
  <outline>
    <contour>
      <point x="186" y="-178" type="line"/>
      <point x="186" y="461" type="line" smooth="yes"/>
      <point x="186" y="573"/>
      <point x="222" y="627"/>
      <point x="288" y="627" type="curve" smooth="yes"/>
      <point x="335" y="627"/>
      <point x="377" y="595"/>
      <point x="377" y="531" type="curve" smooth="yes"/>
      <point x="377" y="471"/>
      <point x="334" y="400"/>
      <point x="248" y="400" type="curve" smooth="yes"/>
      <point x="234" y="400" type="line"/>
      <point x="234" y="318" type="line"/>
      <point x="316" y="318" type="line" smooth="yes"/>
      <point x="393" y="318"/>
      <point x="430" y="268"/>
      <point x="430" y="204" type="curve" smooth="yes"/>
      <point x="430" y="131"/>
      <point x="386" y="83"/>
      <point x="332" y="83" type="curve" smooth="yes"/>
      <point x="277" y="83"/>
      <point x="231" y="99"/>
      <point x="201" y="137" type="curve"/>
      <point x="192" y="50" type="line"/>
      <point x="240" y="10"/>
      <point x="290" y="-12"/>
      <point x="352" y="-12" type="curve" smooth="yes"/>
      <point x="441" y="-12"/>
      <point x="544" y="58"/>
      <point x="544" y="196" type="curve" smooth="yes"/>
      <point x="544" y="294"/>
      <point x="484" y="365"/>
      <point x="398" y="379" type="curve"/>
      <point x="398" y="383" type="line"/>
      <point x="455" y="419"/>
      <point x="488" y="472"/>
      <point x="488" y="541" type="curve" smooth="yes"/>
      <point x="488" y="662"/>
      <point x="390" y="718"/>
      <point x="288" y="718" type="curve" smooth="yes"/>
      <point x="140" y="718"/>
      <point x="72" y="615"/>
      <point x="72" y="478" type="curve" smooth="yes"/>
      <point x="72" y="-178" type="line"/>
    </contour>
  </outline>
</glyph>
<glyph name="bsmall" format="1">
  <advance width="518"/>
  <outline>
    <component base="ve"/>
    <contour>
      <point x="259" y="512" type="move" name="aboveLC"/>
    </contour>
    <contour>
      <point x="274" y="-20" type="move" name="belowLC"/>
    </contour>
  </outline>
</glyph>
<glyph name="caron.a" format="1">
  <advance width="30"/>
  <outline>
    <contour>
      <point x="-23" y="548" type="line"/>
      <point x="29" y="548" type="line"/>
      <point x="48" y="702" type="line"/>
      <point x="49" y="765" type="line"/>
      <point x="-28" y="765" type="line"/>
    </contour>
  </outline>
</glyph>
<glyph name="chilatin" format="1">
  <advance width="535"/>
  <outline>
    <contour>
      <point x="368" y="39" type="curve" smooth="yes"/>
      <point x="310" y="198" type="line"/>
      <point x="242" y="108" type="line"/>
      <point x="293" y="-40" type="line" smooth="yes"/>
      <point x="335" y="-166"/>
      <point x="383" y="-194"/>
      <point x="441" y="-194" type="curve" smooth="yes"/>
      <point x="474" y="-194"/>
      <point x="509" y="-186"/>
      <point x="530" y="-170" type="curve"/>
      <point x="496" y="-86" type="line"/>
      <point x="484" y="-95"/>
      <point x="468" y="-100"/>
      <point x="451" y="-100" type="curve" smooth="yes"/>
      <point x="428" y="-100"/>
      <point x="406" y="-67"/>
    </contour>
    <contour>
      <point x="139" y="-194" type="line"/>
      <point x="250" y="71" type="line"/>
      <point x="257" y="71" type="line"/>
      <point x="324" y="150" type="line"/>
      <point x="483" y="491" type="line"/>
      <point x="362" y="491" type="line"/>
      <point x="268" y="250" type="line"/>
      <point x="261" y="250" type="line"/>
      <point x="195" y="164" type="line"/>
      <point x="15" y="-194" type="line"/>
    </contour>
    <contour>
      <point x="154" y="270" type="curve" smooth="yes"/>
      <point x="209" y="117" type="line"/>
      <point x="278" y="207" type="line"/>
      <point x="229" y="349" type="line" smooth="yes"/>
      <point x="187" y="474"/>
      <point x="140" y="503"/>
      <point x="81" y="503" type="curve" smooth="yes"/>
      <point x="48" y="503"/>
      <point x="13" y="494"/>
      <point x="-8" y="479" type="curve"/>
      <point x="26" y="395" type="line"/>
      <point x="38" y="404"/>
      <point x="54" y="409"/>
      <point x="71" y="409" type="curve" smooth="yes"/>
      <point x="95" y="409"/>
      <point x="116" y="376"/>
    </contour>
  </outline>
</glyph>
<glyph name="chook" format="1">
  <advance width="462"/>
  <outline>
    <contour>
      <point x="337" y="446" type="curve"/>
      <point x="431" y="448" type="line"/>
      <point x="410" y="473"/>
      <point x="399" y="492"/>
      <point x="399" y="520" type="curve" smooth="yes"/>
      <point x="399" y="545"/>
      <point x="420" y="561"/>
      <point x="452" y="561" type="curve" smooth="yes"/>
      <point x="464" y="561"/>
      <point x="472" y="558"/>
      <point x="482" y="554" type="curve"/>
      <point x="504" y="640" type="line"/>
      <point x="486" y="646"/>
      <point x="465" y="652"/>
      <point x="433" y="652" type="curve" smooth="yes"/>
      <point x="356" y="652"/>
      <point x="309" y="605"/>
      <point x="309" y="541" type="curve" smooth="yes"/>
      <point x="309" y="509"/>
      <point x="319" y="480"/>
    </contour>
    <component base="c"/>
  </outline>
</glyph>
<glyph name="clickalveolar" format="1">
  <advance width="388"/>
  <outline>
    <contour>
      <point x="146" y="-194" type="line"/>
      <point x="249" y="-194" type="line"/>
      <point x="249" y="706" type="line"/>
      <point x="146" y="706" type="line"/>
    </contour>
    <contour>
      <point x="6" y="306" type="line"/>
      <point x="380" y="306" type="line"/>
      <point x="380" y="365" type="line"/>
      <point x="83" y="365" type="line"/>
      <point x="6" y="360" type="line"/>
    </contour>
    <contour>
      <point x="6" y="140" type="line"/>
      <point x="380" y="140" type="line"/>
      <point x="380" y="200" type="line"/>
      <point x="83" y="200" type="line"/>
      <point x="6" y="194" type="line"/>
    </contour>
  </outline>
</glyph>
<glyph name="clickdental" format="1">
  <advance width="255"/>
  <outline>
    <contour>
      <point x="89" y="-94" type="line"/>
      <point x="166" y="-94" type="line"/>
      <point x="166" y="706" type="line"/>
      <point x="89" y="706" type="line"/>
    </contour>
  </outline>
</glyph>
<glyph name="clickretroflex" format="1">
  <advance width="291"/>
  <outline>
    <contour>
      <point x="114" y="119" type="line"/>
      <point x="177" y="119" type="line"/>
      <point x="190" y="560" type="line"/>
      <point x="193" y="706" type="line"/>
      <point x="98" y="706" type="line"/>
      <point x="101" y="560" type="line"/>
    </contour>
    <contour>
      <point x="146" y="-106" type="curve" smooth="yes"/>
      <point x="180" y="-106"/>
      <point x="208" y="-78"/>
      <point x="208" y="-41" type="curve" smooth="yes"/>
      <point x="208" y="-3"/>
      <point x="180" y="25"/>
      <point x="146" y="25" type="curve" smooth="yes"/>
      <point x="111" y="25"/>
      <point x="83" y="-3"/>
      <point x="83" y="-41" type="curve" smooth="yes"/>
      <point x="83" y="-78"/>
      <point x="111" y="-106"/>
    </contour>
  </outline>
</glyph>
<glyph name="dezh" format="1">
  <advance width="911"/>
  <outline>
    <contour>
      <point x="421" y="400" type="line"/>
      <point x="596" y="400" type="line"/>
      <point x="596" y="491" type="line"/>
      <point x="421" y="491" type="line"/>
    </contour>
    <component base="ezh" xOffset="468"/>
    <component base="d"/>
    <contour>
      <point x="455" y="730" type="move" name="aboveUC"/>
    </contour>
    <contour>
      <point x="404" y="-20" type="move" name="belowLC"/>
    </contour>
  </outline>
</glyph>
<glyph name="dotlessi" format="1">
  <advance width="262"/>
  <outline>
    <contour>
      <point x="73" y="0" type="line"/>
      <point x="188" y="0" type="line"/>
      <point x="188" y="491" type="line"/>
      <point x="73" y="491" type="line"/>
    </contour>
    <contour>
      <point x="166" y="0" type="move" name="ogonekLC"/>
    </contour>
    <contour>
      <point x="131" y="512" type="move" name="aboveLC"/>
    </contour>
    <contour>
      <point x="131" y="0" type="move" name="baseLC"/>
    </contour>
    <contour>
      <point x="130" y="-20" type="move" name="belowLC"/>
    </contour>
  </outline>
</glyph>
<glyph name="dotlessjstroke" format="1">
  <advance width="296"/>
  <outline>
    <contour>
      <point x="10" y="227" type="line"/>
      <point x="282" y="227" type="line"/>
      <point x="282" y="286" type="line"/>
      <point x="94" y="286" type="line"/>
      <point x="10" y="281" type="line"/>
    </contour>
    <component base="dotlessj" xOffset="16"/>
    <contour>
      <point x="148" y="512" type="move" name="aboveLC"/>
    </contour>
    <contour>
      <point x="148" y="-20" type="move" name="belowLC"/>
    </contour>
  </outline>
</glyph>
<glyph name="e" format="1">
  <advance width="507"/>
  <outline>
    <contour>
      <point x="283" y="-12" type="curve" smooth="yes"/>
      <point x="345" y="-12"/>
      <point x="404" y="10"/>
      <point x="451" y="41" type="curve"/>
      <point x="412" y="113" type="line"/>
      <point x="376" y="90"/>
      <point x="340" y="77"/>
      <point x="298" y="77" type="curve" smooth="yes"/>
      <point x="220" y="77"/>
      <point x="147" y="126"/>
      <point x="147" y="245" type="curve" smooth="yes"/>
      <point x="147" y="366"/>
      <point x="209" y="414"/>
      <point x="270" y="414" type="curve" smooth="yes"/>
      <point x="337" y="414"/>
      <point x="370" y="368"/>
      <point x="370" y="292" type="curve"/>
      <point x="130" y="292" type="line"/>
      <point x="131" y="214" type="line"/>
      <point x="465" y="214" type="line"/>
      <point x="468" y="226"/>
      <point x="470" y="248"/>
      <point x="470" y="270" type="curve" smooth="yes"/>
      <point x="470" y="407"/>
      <point x="400" y="503"/>
      <point x="267" y="503" type="curve" smooth="yes"/>
      <point x="152" y="503"/>
      <point x="41" y="405"/>
      <point x="41" y="245" type="curve" smooth="yes"/>
      <point x="41" y="83"/>
      <point x="147" y="-12"/>
    </contour>
    <contour>
      <point x="363" y="0" type="move" name="ogonekLC"/>
    </contour>
    <contour>
      <point x="272" y="512" type="move" name="aboveLC"/>
    </contour>
    <contour>
      <point x="262" y="0" type="move" name="baseLC"/>
    </contour>
    <contour>
      <point x="262" y="-20" type="move" name="belowLC"/>
    </contour>
  </outline>
</glyph>
<glyph name="en" format="1">
  <advance width="572"/>
  <outline>
    <contour>
      <point x="73" y="0" type="line"/>
      <point x="188" y="0" type="line"/>
      <point x="188" y="202" type="line"/>
      <point x="384" y="202" type="line"/>
      <point x="384" y="0" type="line"/>
      <point x="499" y="0" type="line"/>
      <point x="499" y="491" type="line"/>
      <point x="384" y="491" type="line"/>
      <point x="384" y="303" type="line"/>
      <point x="188" y="303" type="line"/>
      <point x="188" y="491" type="line"/>
      <point x="73" y="491" type="line"/>
    </contour>
    <contour>
      <point x="286" y="512" type="move" name="aboveLC"/>
    </contour>
  </outline>
</glyph>
<glyph name="endash.sups" format="1">
  <advance width="349"/>
  <outline>
    <contour>
      <point x="42" y="536" type="line"/>
      <point x="307" y="536" type="line"/>
      <point x="307" y="589" type="line"/>
      <point x="42" y="589" type="line"/>
    </contour>
  </outline>
</glyph>
<glyph name="eopen.sups" format="1">
  <advance width="296"/>
  <outline>
    <contour>
      <point x="167" y="377" type="curve" smooth="yes"/>
      <point x="209" y="377"/>
      <point x="243" y="385"/>
      <point x="281" y="411" type="curve"/>
      <point x="249" y="464" type="line"/>
      <point x="223" y="448"/>
      <point x="198" y="440"/>
      <point x="175" y="440" type="curve" smooth="yes"/>
      <point x="134" y="440"/>
      <point x="106" y="457"/>
      <point x="106" y="485" type="curve" smooth="yes"/>
      <point x="106" y="512"/>
      <point x="126" y="524"/>
      <point x="167" y="524" type="curve" smooth="yes"/>
      <point x="219" y="524" type="line"/>
      <point x="219" y="580" type="line"/>
      <point x="178" y="580" type="line" smooth="yes"/>
      <point x="139" y="580"/>
      <point x="121" y="593"/>
      <point x="121" y="616" type="curve" smooth="yes"/>
      <point x="121" y="640"/>
      <point x="142" y="655"/>
      <point x="172" y="655" type="curve" smooth="yes"/>
      <point x="198" y="655"/>
      <point x="218" y="647"/>
      <point x="241" y="634" type="curve"/>
      <point x="272" y="688" type="line"/>
      <point x="241" y="708"/>
      <point x="207" y="718"/>
      <point x="169" y="718" type="curve" smooth="yes"/>
      <point x="101" y="718"/>
      <point x="40" y="690"/>
      <point x="40" y="627" type="curve" smooth="yes"/>
      <point x="40" y="599"/>
      <point x="58" y="570"/>
      <point x="94" y="558" type="curve"/>
      <point x="94" y="556" type="line"/>
      <point x="55" y="545"/>
      <point x="24" y="522"/>
      <point x="24" y="476" type="curve" smooth="yes"/>
      <point x="24" y="412"/>
      <point x="92" y="377"/>
    </contour>
  </outline>
</glyph>
<glyph name="eopenreversedclosed" format="1">
  <advance width="556"/>
  <outline>
    <contour>
      <point x="293" y="-12" type="curve" smooth="yes"/>
      <point x="410" y="-12"/>
      <point x="510" y="42"/>
      <point x="510" y="138" type="curve" smooth="yes"/>
      <point x="510" y="206"/>
      <point x="462" y="243"/>
      <point x="404" y="258" type="curve"/>
      <point x="404" y="262" type="line"/>
      <point x="458" y="280"/>
      <point x="485" y="324"/>
      <point x="485" y="367" type="curve" smooth="yes"/>
      <point x="485" y="461"/>
      <point x="398" y="503"/>
      <point x="294" y="503" type="curve" smooth="yes"/>
      <point x="159" y="503"/>
      <point x="41" y="417"/>
      <point x="41" y="245" type="curve" smooth="yes"/>
      <point x="41" y="74"/>
      <point x="153" y="-12"/>
    </contour>
    <contour>
      <point x="292" y="77" type="curve" smooth="yes"/>
      <point x="209" y="77"/>
      <point x="159" y="132"/>
      <point x="159" y="245" type="curve" smooth="yes"/>
      <point x="159" y="358"/>
      <point x="209" y="414"/>
      <point x="292" y="414" type="curve" smooth="yes"/>
      <point x="337" y="414"/>
      <point x="372" y="391"/>
      <point x="372" y="352" type="curve" smooth="yes"/>
      <point x="372" y="315"/>
      <point x="345" y="292"/>
      <point x="287" y="292" type="curve" smooth="yes"/>
      <point x="258" y="292" type="line"/>
      <point x="258" y="214" type="line"/>
      <point x="302" y="214" type="line" smooth="yes"/>
      <point x="364" y="214"/>
      <point x="396" y="193"/>
      <point x="396" y="149" type="curve" smooth="yes"/>
      <point x="396" y="104"/>
      <point x="355" y="77"/>
    </contour>
    <contour>
      <point x="287" y="512" type="move" name="aboveLC"/>
    </contour>
    <contour>
      <point x="273" y="-20" type="move" name="belowLC"/>
    </contour>
  </outline>
</glyph>
<glyph name="er" format="1">
  <advance width="564"/>
  <outline>
    <component base="p"/>
    <contour>
      <point x="297" y="512" type="move" name="aboveLC"/>
    </contour>
  </outline>
</glyph>
<glyph name="es" format="1">
  <advance width="462"/>
  <outline>
    <component base="c"/>
    <contour>
      <point x="275" y="512" type="move" name="aboveLC"/>
    </contour>
  </outline>
</glyph>
<glyph name="eshcurl" format="1">
  <advance width="415"/>
  <outline>
    <contour>
      <point x="341" y="13" type="curve" smooth="yes"/>
      <point x="342" y="540" type="line" smooth="yes"/>
      <point x="342" y="597"/>
      <point x="357" y="628"/>
      <point x="408" y="628" type="curve" smooth="yes"/>
      <point x="420" y="628"/>
      <point x="431" y="624"/>
      <point x="441" y="620" type="curve"/>
      <point x="462" y="706" type="line"/>
      <point x="445" y="713"/>
      <point x="424" y="719"/>
      <point x="392" y="719" type="curve" smooth="yes"/>
      <point x="268" y="719"/>
      <point x="227" y="642"/>
      <point x="227" y="538" type="curve" smooth="yes"/>
      <point x="227" y="16" type="line" smooth="yes"/>
      <point x="227" y="-57"/>
      <point x="182" y="-121"/>
      <point x="118" y="-121" type="curve" smooth="yes"/>
      <point x="87" y="-121"/>
      <point x="61" y="-101"/>
      <point x="61" y="-75" type="curve" smooth="yes"/>
      <point x="61" y="-57"/>
      <point x="75" y="-35"/>
      <point x="107" y="-35" type="curve" smooth="yes"/>
      <point x="156" y="-35"/>
      <point x="216" y="-104"/>
      <point x="265" y="-209" type="curve"/>
      <point x="326" y="-176" type="line"/>
      <point x="260" y="-38"/>
      <point x="184" y="20"/>
      <point x="102" y="20" type="curve" smooth="yes"/>
      <point x="32" y="20"/>
      <point x="-14" y="-23"/>
      <point x="-14" y="-87" type="curve" smooth="yes"/>
      <point x="-14" y="-155"/>
      <point x="39" y="-211"/>
      <point x="131" y="-211" type="curve" smooth="yes"/>
      <point x="250" y="-211"/>
      <point x="341" y="-111"/>
    </contour>
  </outline>
</glyph>
<glyph name="eturned" format="1">
  <advance width="507"/>
  <outline>
    <component base="schwa"/>
    <contour>
      <point x="249" y="512" type="move" name="aboveLC"/>
    </contour>
    <contour>
      <point x="247" y="-20" type="move" name="belowLC"/>
    </contour>
  </outline>
</glyph>
<glyph name="ezhcurl" format="1">
  <advance width="443"/>
  <outline>
    <contour>
      <point x="184" y="-206" type="curve" smooth="yes"/>
      <point x="318" y="-206"/>
      <point x="423" y="-110"/>
      <point x="423" y="18" type="curve" smooth="yes"/>
      <point x="423" y="126"/>
      <point x="352" y="208"/>
      <point x="232" y="206" type="curve"/>
      <point x="401" y="430" type="line"/>
      <point x="401" y="491" type="line"/>
      <point x="41" y="491" type="line"/>
      <point x="41" y="400" type="line"/>
      <point x="262" y="400" type="line"/>
      <point x="91" y="171" type="line"/>
      <point x="132" y="113" type="line"/>
      <point x="154" y="122"/>
      <point x="165" y="127"/>
      <point x="192" y="127" type="curve" smooth="yes"/>
      <point x="264" y="127"/>
      <point x="307" y="83"/>
      <point x="307" y="14" type="curve" smooth="yes"/>
      <point x="307" y="-58"/>
      <point x="252" y="-117"/>
      <point x="172" y="-117" type="curve" smooth="yes"/>
      <point x="134" y="-117"/>
      <point x="102" y="-96"/>
      <point x="102" y="-70" type="curve" smooth="yes"/>
      <point x="102" y="-51"/>
      <point x="118" y="-30"/>
      <point x="158" y="-30" type="curve" smooth="yes"/>
      <point x="216" y="-30"/>
      <point x="292" y="-100"/>
      <point x="336" y="-205" type="curve"/>
      <point x="407" y="-172" type="line"/>
      <point x="337" y="-34"/>
      <point x="245" y="24"/>
      <point x="151" y="24" type="curve" smooth="yes"/>
      <point x="73" y="24"/>
      <point x="20" y="-19"/>
      <point x="20" y="-82" type="curve" smooth="yes"/>
      <point x="20" y="-151"/>
      <point x="81" y="-206"/>
    </contour>
    <contour>
      <point x="196" y="522" type="move" name="aboveLC"/>
    </contour>
  </outline>
</glyph>
<glyph name="g.a" format="1">
  <advance width="571"/>
  <outline>
    <component base="gscript"/>
    <contour>
      <point x="296" y="512" type="move" name="aboveLC"/>
    </contour>
    <contour>
      <point x="290" y="-212" type="move" name="belowLC"/>
    </contour>
  </outline>
</glyph>
<glyph name="glottalstopinverted" format="1">
  <advance width="433"/>
  <outline>
    <contour>
      <point x="137" y="706" type="line"/>
      <point x="137" y="386" type="line"/>
      <point x="252" y="316"/>
      <point x="298" y="266"/>
      <point x="298" y="191" type="curve" smooth="yes"/>
      <point x="298" y="123"/>
      <point x="258" y="82"/>
      <point x="190" y="82" type="curve" smooth="yes"/>
      <point x="130" y="82"/>
      <point x="87" y="114"/>
      <point x="54" y="150" type="curve"/>
      <point x="-4" y="76" type="line"/>
      <point x="40" y="29"/>
      <point x="105" y="-12"/>
      <point x="201" y="-12" type="curve" smooth="yes"/>
      <point x="318" y="-12"/>
      <point x="414" y="55"/>
      <point x="414" y="187" type="curve" smooth="yes"/>
      <point x="414" y="299"/>
      <point x="347" y="363"/>
      <point x="252" y="432" type="curve"/>
      <point x="252" y="706" type="line"/>
    </contour>
  </outline>
</glyph>
<glyph name="glottalstopstroke" format="1">
  <advance width="459"/>
  <outline>
    <contour>
      <point x="151" y="0" type="line"/>
      <point x="266" y="0" type="line"/>
      <point x="266" y="261" type="line"/>
      <point x="441" y="261" type="line"/>
      <point x="441" y="320" type="line"/>
      <point x="304" y="320" type="line"/>
      <point x="375" y="377"/>
      <point x="430" y="441"/>
      <point x="430" y="520" type="curve" smooth="yes"/>
      <point x="430" y="651"/>
      <point x="333" y="718"/>
      <point x="216" y="718" type="curve" smooth="yes"/>
      <point x="120" y="718"/>
      <point x="56" y="677"/>
      <point x="11" y="630" type="curve"/>
      <point x="70" y="556" type="line"/>
      <point x="102" y="593"/>
      <point x="146" y="624"/>
      <point x="205" y="624" type="curve" smooth="yes"/>
      <point x="273" y="624"/>
      <point x="314" y="583"/>
      <point x="314" y="516" type="curve" smooth="yes"/>
      <point x="314" y="451"/>
      <point x="271" y="391"/>
      <point x="167" y="320" type="curve"/>
      <point x="85" y="320" type="line"/>
      <point x="9" y="315" type="line"/>
      <point x="9" y="261" type="line"/>
      <point x="151" y="261" type="line"/>
    </contour>
    <contour>
      <point x="229" y="730" type="move" name="aboveUC"/>
    </contour>
    <contour>
      <point x="229" y="-20" type="move" name="belowLC"/>
    </contour>
  </outline>
</glyph>
<glyph name="glottalstopstrokereversed" format="1">
  <advance width="459"/>
  <outline>
    <contour>
      <point x="193" y="0" type="line"/>
      <point x="308" y="0" type="line"/>
      <point x="308" y="261" type="line"/>
      <point x="450" y="261" type="line"/>
      <point x="450" y="320" type="line"/>
      <point x="292" y="320" type="line"/>
      <point x="188" y="391"/>
      <point x="145" y="451"/>
      <point x="145" y="516" type="curve" smooth="yes"/>
      <point x="145" y="583"/>
      <point x="190" y="624"/>
      <point x="264" y="624" type="curve" smooth="yes"/>
      <point x="319" y="624"/>
      <point x="359" y="593"/>
      <point x="389" y="556" type="curve"/>
      <point x="448" y="630" type="line"/>
      <point x="405" y="677"/>
      <point x="344" y="718"/>
      <point x="253" y="718" type="curve" smooth="yes"/>
      <point x="131" y="718"/>
      <point x="29" y="651"/>
      <point x="29" y="520" type="curve" smooth="yes"/>
      <point x="29" y="441"/>
      <point x="84" y="377"/>
      <point x="154" y="320" type="curve"/>
      <point x="94" y="320" type="line"/>
      <point x="18" y="315" type="line"/>
      <point x="18" y="261" type="line"/>
      <point x="193" y="261" type="line"/>
    </contour>
    <contour>
      <point x="229" y="730" type="move" name="aboveUC"/>
    </contour>
    <contour>
      <point x="229" y="-20" type="move" name="belowLC"/>
    </contour>
  </outline>
</glyph>
<glyph name="gsmallhook" format="1">
  <advance width="507"/>
  <outline>
    <contour>
      <point x="358" y="446" type="curve"/>
      <point x="452" y="443" type="line"/>
      <point x="431" y="469"/>
      <point x="420" y="489"/>
      <point x="420" y="518" type="curve" smooth="yes"/>
      <point x="420" y="544"/>
      <point x="441" y="561"/>
      <point x="473" y="561" type="curve" smooth="yes"/>
      <point x="485" y="561"/>
      <point x="493" y="558"/>
      <point x="504" y="554" type="curve"/>
      <point x="525" y="640" type="line"/>
      <point x="507" y="646"/>
      <point x="487" y="652"/>
      <point x="454" y="652" type="curve" smooth="yes"/>
      <point x="378" y="652"/>
      <point x="330" y="605"/>
      <point x="330" y="541" type="curve" smooth="yes"/>
      <point x="330" y="509"/>
      <point x="340" y="480"/>
    </contour>
    <contour>
      <point x="284" y="-12" type="curve" smooth="yes"/>
      <point x="359" y="-12"/>
      <point x="423" y="16"/>
      <point x="462" y="51" type="curve"/>
      <point x="462" y="280" type="line"/>
      <point x="267" y="280" type="line"/>
      <point x="267" y="201" type="line"/>
      <point x="362" y="201" type="line"/>
      <point x="362" y="99" type="line"/>
      <point x="346" y="86"/>
      <point x="321" y="77"/>
      <point x="293" y="77" type="curve" smooth="yes"/>
      <point x="212" y="77"/>
      <point x="157" y="139"/>
      <point x="157" y="245" type="curve" smooth="yes"/>
      <point x="157" y="357"/>
      <point x="221" y="414"/>
      <point x="295" y="414" type="curve" smooth="yes"/>
      <point x="344" y="414"/>
      <point x="369" y="396"/>
      <point x="398" y="373" type="curve"/>
      <point x="452" y="443" type="line"/>
      <point x="413" y="475"/>
      <point x="367" y="503"/>
      <point x="288" y="503" type="curve" smooth="yes"/>
      <point x="156" y="503"/>
      <point x="41" y="408"/>
      <point x="41" y="245" type="curve" smooth="yes"/>
      <point x="41" y="74"/>
      <point x="153" y="-12"/>
    </contour>
    <contour>
      <point x="314" y="514" type="move" name="aboveUC"/>
    </contour>
    <contour>
      <point x="313" y="-22" type="move" name="belowLC"/>
    </contour>
  </outline>
</glyph>
<glyph name="h" format="1">
  <advance width="558"/>
  <outline>
    <contour>
      <point x="73" y="0" type="line"/>
      <point x="188" y="0" type="line"/>
      <point x="188" y="343" type="line"/>
      <point x="229" y="383"/>
      <point x="257" y="404"/>
      <point x="300" y="404" type="curve" smooth="yes"/>
      <point x="354" y="404"/>
      <point x="377" y="374"/>
      <point x="377" y="293" type="curve" smooth="yes"/>
      <point x="377" y="0" type="line"/>
      <point x="492" y="0" type="line"/>
      <point x="492" y="308" type="line" smooth="yes"/>
      <point x="492" y="432"/>
      <point x="446" y="503"/>
      <point x="341" y="503" type="curve" smooth="yes"/>
      <point x="274" y="503"/>
      <point x="225" y="468"/>
      <point x="184" y="429" type="curve"/>
      <point x="188" y="524" type="line"/>
      <point x="188" y="706" type="line"/>
      <point x="73" y="706" type="line"/>
    </contour>
    <contour>
      <point x="128" y="730" type="move" name="aboveUC"/>
    </contour>
    <contour>
      <point x="279" y="0" type="move" name="baseLC"/>
    </contour>
    <contour>
      <point x="292" y="-20" type="move" name="belowLC"/>
    </contour>
  </outline>
</glyph>
<glyph name="hfishhooktailturned" format="1">
  <advance width="661"/>
  <outline>
    <contour>
      <point x="618" y="-185" type="curve" smooth="yes"/>
      <point x="649" y="-185"/>
      <point x="672" y="-179"/>
      <point x="688" y="-172" type="curve"/>
      <point x="666" y="-86" type="line"/>
      <point x="656" y="-90"/>
      <point x="646" y="-93"/>
      <point x="634" y="-93" type="curve" smooth="yes"/>
      <point x="599" y="-93"/>
      <point x="588" y="-66"/>
      <point x="588" y="-14" type="curve" smooth="yes"/>
      <point x="588" y="491" type="line"/>
      <point x="472" y="491" type="line"/>
      <point x="472" y="155" type="line"/>
      <point x="434" y="106"/>
      <point x="404" y="87"/>
      <point x="360" y="87" type="curve" smooth="yes"/>
      <point x="307" y="87"/>
      <point x="284" y="117"/>
      <point x="284" y="198" type="curve" smooth="yes"/>
      <point x="284" y="314" type="line" smooth="yes"/>
      <point x="284" y="424"/>
      <point x="233" y="503"/>
      <point x="118" y="503" type="curve" smooth="yes"/>
      <point x="83" y="503"/>
      <point x="61" y="498"/>
      <point x="42" y="489" type="curve"/>
      <point x="63" y="403" type="line"/>
      <point x="76" y="410"/>
      <point x="87" y="412"/>
      <point x="102" y="412" type="curve" smooth="yes"/>
      <point x="144" y="412"/>
      <point x="169" y="380"/>
      <point x="169" y="316" type="curve"/>
      <point x="169" y="183" type="line" smooth="yes"/>
      <point x="169" y="59"/>
      <point x="215" y="-12"/>
      <point x="320" y="-12" type="curve" smooth="yes"/>
      <point x="387" y="-12"/>
      <point x="434" y="21"/>
      <point x="472" y="63" type="curve"/>
      <point x="472" y="-12" type="line" smooth="yes"/>
      <point x="472" y="-112"/>
      <point x="509" y="-185"/>
    </contour>
    <contour>
      <point x="380" y="514" type="move" name="aboveLC"/>
    </contour>
    <contour>
      <point x="398" y="-22" type="move" name="belowLC"/>
    </contour>
  </outline>
</glyph>
<glyph name="hfishhookturned" format="1">
  <advance width="661"/>
  <outline>
    <contour>
      <point x="472" y="-194" type="line"/>
      <point x="588" y="-194" type="line"/>
      <point x="588" y="491" type="line"/>
      <point x="472" y="491" type="line"/>
      <point x="472" y="155" type="line"/>
      <point x="434" y="106"/>
      <point x="404" y="87"/>
      <point x="360" y="87" type="curve" smooth="yes"/>
      <point x="307" y="87"/>
      <point x="284" y="117"/>
      <point x="284" y="198" type="curve" smooth="yes"/>
      <point x="284" y="314" type="line" smooth="yes"/>
      <point x="284" y="424"/>
      <point x="233" y="503"/>
      <point x="118" y="503" type="curve" smooth="yes"/>
      <point x="83" y="503"/>
      <point x="61" y="498"/>
      <point x="42" y="489" type="curve"/>
      <point x="63" y="403" type="line"/>
      <point x="76" y="410"/>
      <point x="87" y="412"/>
      <point x="102" y="412" type="curve" smooth="yes"/>
      <point x="144" y="412"/>
      <point x="169" y="380"/>
      <point x="169" y="316" type="curve"/>
      <point x="169" y="183" type="line" smooth="yes"/>
      <point x="169" y="59"/>
      <point x="215" y="-12"/>
      <point x="320" y="-12" type="curve" smooth="yes"/>
      <point x="387" y="-12"/>
      <point x="436" y="22"/>
      <point x="478" y="68" type="curve"/>
      <point x="472" y="-32" type="line"/>
    </contour>
    <contour>
      <point x="380" y="514" type="move" name="aboveLC"/>
    </contour>
    <contour>
      <point x="398" y="-22" type="move" name="belowLC"/>
    </contour>
  </outline>
</glyph>
<glyph name="hyphen.sups" format="1">
  <advance width="244"/>
  <outline>
    <contour>
      <point x="42" y="533" type="line"/>
      <point x="203" y="533" type="line"/>
      <point x="203" y="592" type="line"/>
      <point x="42" y="592" type="line"/>
    </contour>
  </outline>
</glyph>
<glyph name="i" format="1">
  <advance width="262"/>
  <outline>
    <component base="dotlessi"/>
    <component base="dotaccentcmb" xOffset="131"/>
    <contour>
      <point x="131" y="638" type="move" name="aboveUC"/>
    </contour>
    <contour>
      <point x="166" y="0" type="move" name="ogonekLC"/>
    </contour>
    <contour>
      <point x="131" y="0" type="move" name="baseLC"/>
    </contour>
    <contour>
      <point x="130" y="-20" type="move" name="belowLC"/>
    </contour>
  </outline>
</glyph>
<glyph name="khook" format="1">
  <advance width="511"/>
  <outline>
    <contour>
      <point x="73" y="0" type="line"/>
      <point x="186" y="0" type="line"/>
      <point x="186" y="125" type="line"/>
      <point x="263" y="213" type="line"/>
      <point x="389" y="0" type="line"/>
      <point x="514" y="0" type="line"/>
      <point x="329" y="291" type="line"/>
      <point x="497" y="491" type="line"/>
      <point x="371" y="491" type="line"/>
      <point x="189" y="265" type="line"/>
      <point x="186" y="265" type="line"/>
      <point x="186" y="507" type="line" smooth="yes"/>
      <point x="186" y="590"/>
      <point x="218" y="627"/>
      <point x="275" y="627" type="curve" smooth="yes"/>
      <point x="292" y="627"/>
      <point x="310" y="623"/>
      <point x="328" y="615" type="curve"/>
      <point x="351" y="701" type="line"/>
      <point x="329" y="710"/>
      <point x="296" y="718"/>
      <point x="260" y="718" type="curve" smooth="yes"/>
      <point x="128" y="718"/>
      <point x="73" y="631"/>
      <point x="73" y="518" type="curve" smooth="yes"/>
    </contour>
    <contour>
      <point x="258" y="730" type="move" name="aboveLC"/>
    </contour>
    <contour>
      <point x="283" y="-22" type="move" name="belowLC"/>
    </contour>
  </outline>
</glyph>
<glyph name="kturned" format="1">
  <advance width="522"/>
  <outline>
    <contour>
      <point x="336" y="-194" type="line"/>
      <point x="448" y="-194" type="line"/>
      <point x="448" y="491" type="line"/>
      <point x="336" y="491" type="line"/>
      <point x="336" y="265" type="line"/>
      <point x="332" y="265" type="line"/>
      <point x="150" y="491" type="line"/>
      <point x="24" y="491" type="line"/>
      <point x="193" y="291" type="line"/>
      <point x="7" y="0" type="line"/>
      <point x="132" y="0" type="line"/>
      <point x="259" y="213" type="line"/>
      <point x="336" y="125" type="line"/>
    </contour>
    <contour>
      <point x="261" y="512" type="move" name="aboveLC"/>
    </contour>
    <contour>
      <point x="261" y="-20" type="move" name="belowLC"/>
    </contour>
  </outline>
</glyph>
<glyph name="l.a" format="1">
  <advance width="262"/>
  <outline>
    <contour>
      <point x="73" y="0" type="line"/>
      <point x="188" y="0" type="line"/>
      <point x="188" y="706" type="line"/>
      <point x="73" y="706" type="line"/>
    </contour>
    <contour>
      <point x="131" y="638" type="move" name="aboveUC"/>
    </contour>
    <contour>
      <point x="131" y="604" type="move" name="aboveLC"/>
    </contour>
    <contour>
      <point x="131" y="-20" type="move" name="belowLC"/>
    </contour>
  </outline>
</glyph>
<glyph name="lbeltretroflex" format="1">
  <advance width="340"/>
  <outline>
    <contour>
      <point x="129" y="305" type="curve" smooth="yes"/>
      <point x="330" y="305" type="line"/>
      <point x="330" y="364" type="line"/>
      <point x="117" y="364" type="line" smooth="yes"/>
      <point x="76" y="364"/>
      <point x="58" y="381"/>
      <point x="58" y="401" type="curve" smooth="yes"/>
      <point x="58" y="418"/>
      <point x="67" y="432"/>
      <point x="90" y="432" type="curve" smooth="yes"/>
      <point x="128" y="432"/>
      <point x="138" y="394"/>
      <point x="138" y="368" type="curve"/>
      <point x="181" y="353" type="line"/>
      <point x="181" y="391"/>
      <point x="171" y="490"/>
      <point x="84" y="490" type="curve" smooth="yes"/>
      <point x="30" y="490"/>
      <point x="-8" y="452"/>
      <point x="-8" y="401" type="curve" smooth="yes"/>
      <point x="-8" y="347"/>
      <point x="34" y="305"/>
    </contour>
    <component base="lretroflex" xOffset="65"/>
  </outline>
</glyph>
<glyph name="lezh" format="1">
  <advance width="609"/>
  <outline>
    <contour>
      <point x="119" y="400" type="line"/>
      <point x="294" y="400" type="line"/>
      <point x="294" y="491" type="line"/>
      <point x="119" y="491" type="line"/>
    </contour>
    <component base="l.a"/>
    <component base="ezh" xOffset="166"/>
    <contour>
      <point x="131" y="638" type="move" name="aboveUC"/>
    </contour>
    <contour>
      <point x="131" y="-20" type="move" name="belowLC"/>
    </contour>
  </outline>
</glyph>
<glyph name="liraturkish" format="1">
  <advance width="513"/>
  <outline>
    <contour>
      <point x="102" y="-12" type="line"/>
      <point x="332" y="-18"/>
      <point x="482" y="72"/>
      <point x="482" y="247" type="curve" smooth="yes"/>
      <point x="482" y="262"/>
      <point x="480" y="280"/>
      <point x="475" y="302" type="curve"/>
      <point x="379" y="278" type="line"/>
      <point x="383" y="262"/>
      <point x="383" y="251"/>
      <point x="383" y="242" type="curve" smooth="yes"/>
      <point x="383" y="155"/>
      <point x="299" y="101"/>
      <point x="218" y="96" type="curve"/>
      <point x="218" y="297" type="line"/>
      <point x="385" y="385" type="line"/>
      <point x="361" y="440" type="line"/>
      <point x="218" y="364" type="line"/>
      <point x="218" y="427" type="line"/>
      <point x="385" y="515" type="line"/>
      <point x="361" y="570" type="line"/>
      <point x="218" y="494" type="line"/>
      <point x="218" y="636" type="line"/>
      <point x="102" y="636" type="line"/>
      <point x="102" y="438" type="line"/>
      <point x="6" y="387" type="line"/>
      <point x="30" y="332" type="line"/>
      <point x="102" y="370" type="line"/>
      <point x="102" y="307" type="line"/>
      <point x="6" y="257" type="line"/>
      <point x="30" y="202" type="line"/>
      <point x="102" y="240" type="line"/>
    </contour>
  </outline>
</glyph>
<glyph name="lmiddletilde" format="1">
  <advance width="271"/>
  <outline>
    <component base="l"/>
    <component base="tildeoverlaycmb" xOffset="132" yOffset="-30"/>
    <contour>
      <point x="130" y="730" type="move" name="aboveUC"/>
    </contour>
    <contour>
      <point x="149" y="604" type="move" name="aboveLC"/>
    </contour>
    <contour>
      <point x="156" y="-20" type="move" name="belowLC"/>
    </contour>
  </outline>
</glyph>
<glyph name="lretroflex" format="1">
  <advance width="271"/>
  <outline>
    <contour>
      <point x="219" y="-185" type="curve" smooth="yes"/>
      <point x="250" y="-185"/>
      <point x="272" y="-179"/>
      <point x="288" y="-172" type="curve"/>
      <point x="267" y="-86" type="line"/>
      <point x="257" y="-90"/>
      <point x="247" y="-93"/>
      <point x="235" y="-93" type="curve" smooth="yes"/>
      <point x="200" y="-93"/>
      <point x="188" y="-66"/>
      <point x="188" y="-14" type="curve"/>
      <point x="188" y="706" type="line"/>
      <point x="73" y="706" type="line"/>
      <point x="73" y="-12" type="line" smooth="yes"/>
      <point x="73" y="-112"/>
      <point x="110" y="-185"/>
    </contour>
    <contour>
      <point x="135" y="730" type="move" name="aboveUC"/>
    </contour>
    <contour>
      <point x="135" y="-20" type="move" name="belowLC"/>
    </contour>
  </outline>
</glyph>
<glyph name="lsmall" format="1">
  <advance width="422"/>
  <outline>
    <contour>
      <point x="73" y="0" type="line"/>
      <point x="396" y="0" type="line"/>
      <point x="396" y="92" type="line"/>
      <point x="188" y="92" type="line"/>
      <point x="188" y="491" type="line"/>
      <point x="73" y="491" type="line"/>
    </contour>
    <contour>
      <point x="136" y="562" type="move" name="aboveUC"/>
    </contour>
    <contour>
      <point x="211" y="512" type="move" name="aboveLC"/>
    </contour>
    <contour>
      <point x="252" y="-20" type="move" name="belowLC"/>
    </contour>
  </outline>
</glyph>
<glyph name="mturned" format="1">
  <advance width="843"/>
  <outline>
    <component base="m" xScale="-1.0" yScale="-1.0" xOffset="846" yOffset="491"/>
    <contour>
      <point x="429" y="512" type="move" name="aboveLC"/>
    </contour>
    <contour>
      <point x="432" y="-20" type="move" name="belowLC"/>
    </contour>
  </outline>
</glyph>
<glyph name="ohorn" format="1">
  <advance width="549"/>
  <outline>
    <contour>
      <point x="427" y="441" type="line"/>
      <point x="490" y="460"/>
      <point x="545" y="503"/>
      <point x="545" y="583" type="curve" smooth="yes"/>
      <point x="545" y="616"/>
      <point x="532" y="649"/>
      <point x="518" y="670" type="curve"/>
      <point x="432" y="631" type="line"/>
      <point x="440" y="616"/>
      <point x="447" y="596"/>
      <point x="447" y="575" type="curve" smooth="yes"/>
      <point x="447" y="519"/>
      <point x="417" y="492"/>
      <point x="368" y="482" type="curve"/>
    </contour>
    <component base="o"/>
    <contour>
      <point x="274" y="512" type="move" name="aboveLC"/>
    </contour>
    <contour>
      <point x="274" y="-20" type="move" name="belowLC"/>
    </contour>
  </outline>
</glyph>
<glyph name="omegalatinclosed" format="1">
  <advance width="724"/>
  <outline>
    <contour>
      <point x="227" y="-12" type="curve" smooth="yes"/>
      <point x="284" y="-12"/>
      <point x="334" y="14"/>
      <point x="359" y="79" type="curve"/>
      <point x="363" y="79" type="line"/>
      <point x="389" y="14"/>
      <point x="444" y="-12"/>
      <point x="500" y="-12" type="curve" smooth="yes"/>
      <point x="612" y="-12"/>
      <point x="678" y="68"/>
      <point x="678" y="216" type="curve" smooth="yes"/>
      <point x="678" y="350"/>
      <point x="581" y="503"/>
      <point x="363" y="503" type="curve" smooth="yes"/>
      <point x="125" y="503"/>
      <point x="46" y="322"/>
      <point x="46" y="222" type="curve" smooth="yes"/>
      <point x="46" y="56"/>
      <point x="119" y="-12"/>
    </contour>
    <contour>
      <point x="230" y="82" type="curve" smooth="yes"/>
      <point x="184" y="82"/>
      <point x="155" y="134"/>
      <point x="155" y="219" type="curve" smooth="yes"/>
      <point x="155" y="319"/>
      <point x="232" y="413"/>
      <point x="360" y="413" type="curve" smooth="yes"/>
      <point x="481" y="413"/>
      <point x="568" y="335"/>
      <point x="568" y="228" type="curve" smooth="yes"/>
      <point x="568" y="134"/>
      <point x="536" y="82"/>
      <point x="489" y="82" type="curve" smooth="yes"/>
      <point x="452" y="82"/>
      <point x="418" y="108"/>
      <point x="418" y="189" type="curve" smooth="yes"/>
      <point x="418" y="274" type="line"/>
      <point x="303" y="274" type="line"/>
      <point x="303" y="189" type="line" smooth="yes"/>
      <point x="303" y="113"/>
      <point x="273" y="82"/>
    </contour>
    <contour>
      <point x="360" y="514" type="move" name="aboveLC"/>
    </contour>
    <contour>
      <point x="360" y="-22" type="move" name="belowLC"/>
    </contour>
  </outline>
</glyph>
<glyph name="oopen.sups" format="1">
  <advance width="310"/>
  <outline>
    <contour>
      <point x="124" y="377" type="curve" smooth="yes"/>
      <point x="216" y="377"/>
      <point x="283" y="439"/>
      <point x="283" y="548" type="curve" smooth="yes"/>
      <point x="283" y="655"/>
      <point x="207" y="718"/>
      <point x="120" y="718" type="curve" smooth="yes"/>
      <point x="72" y="718"/>
      <point x="38" y="700"/>
      <point x="19" y="684" type="curve"/>
      <point x="58" y="630" type="line"/>
      <point x="75" y="644"/>
      <point x="90" y="652"/>
      <point x="114" y="652" type="curve" smooth="yes"/>
      <point x="162" y="652"/>
      <point x="198" y="609"/>
      <point x="198" y="548" type="curve" smooth="yes"/>
      <point x="198" y="486"/>
      <point x="164" y="444"/>
      <point x="114" y="444" type="curve" smooth="yes"/>
      <point x="84" y="444"/>
      <point x="65" y="455"/>
      <point x="49" y="468" type="curve"/>
      <point x="14" y="415" type="line"/>
      <point x="37" y="396"/>
      <point x="72" y="377"/>
    </contour>
  </outline>
</glyph>
<glyph name="pe" format="1">
  <advance width="564"/>
  <outline>
    <contour>
      <point x="73" y="0" type="line"/>
      <point x="188" y="0" type="line"/>
      <point x="188" y="400" type="line"/>
      <point x="375" y="400" type="line"/>
      <point x="375" y="0" type="line"/>
      <point x="490" y="0" type="line"/>
      <point x="490" y="491" type="line"/>
      <point x="73" y="491" type="line"/>
    </contour>
    <contour>
      <point x="282" y="512" type="move" name="aboveLC"/>
    </contour>
  </outline>
</glyph>
<glyph name="phook" format="1">
  <advance width="564"/>
  <outline>
    <contour>
      <point x="73" y="-194" type="line"/>
      <point x="188" y="-194" type="line"/>
      <point x="188" y="-40" type="line"/>
      <point x="185" y="42" type="line"/>
      <point x="225" y="8"/>
      <point x="268" y="-12"/>
      <point x="311" y="-12" type="curve" smooth="yes"/>
      <point x="420" y="-12"/>
      <point x="521" y="83"/>
      <point x="521" y="248" type="curve" smooth="yes"/>
      <point x="521" y="395"/>
      <point x="450" y="491"/>
      <point x="327" y="491" type="curve" smooth="yes"/>
      <point x="277" y="491"/>
      <point x="230" y="468"/>
      <point x="186" y="431" type="curve"/>
      <point x="187" y="520" type="line"/>
      <point x="191" y="591"/>
      <point x="218" y="627"/>
      <point x="275" y="627" type="curve" smooth="yes"/>
      <point x="292" y="627"/>
      <point x="310" y="623"/>
      <point x="328" y="615" type="curve"/>
      <point x="351" y="701" type="line"/>
      <point x="329" y="710"/>
      <point x="296" y="718"/>
      <point x="260" y="718" type="curve" smooth="yes"/>
      <point x="128" y="718"/>
      <point x="73" y="631"/>
      <point x="73" y="518" type="curve" smooth="yes"/>
    </contour>
    <contour>
      <point x="287" y="83" type="curve" smooth="yes"/>
      <point x="258" y="83"/>
      <point x="224" y="94"/>
      <point x="188" y="124" type="curve"/>
      <point x="188" y="341" type="line"/>
      <point x="226" y="378"/>
      <point x="260" y="396"/>
      <point x="296" y="396" type="curve" smooth="yes"/>
      <point x="370" y="396"/>
      <point x="402" y="340"/>
      <point x="402" y="246" type="curve" smooth="yes"/>
      <point x="402" y="139"/>
      <point x="352" y="83"/>
    </contour>
    <contour>
      <point x="258" y="730" type="move" name="aboveLC"/>
    </contour>
    <contour>
      <point x="123" y="-218" type="move" name="belowLC"/>
    </contour>
  </outline>
</glyph>
<glyph name="qhook" format="1">
  <advance width="568"/>
  <outline>
    <contour>
      <point x="491" y="468" type="line" smooth="yes"/>
      <point x="491" y="519"/>
      <point x="506" y="550"/>
      <point x="546" y="550" type="curve" smooth="yes"/>
      <point x="556" y="550"/>
      <point x="565" y="548"/>
      <point x="572" y="545" type="curve"/>
      <point x="593" y="631" type="line"/>
      <point x="577" y="637"/>
      <point x="558" y="641"/>
      <point x="530" y="641" type="curve" smooth="yes"/>
      <point x="421" y="641"/>
      <point x="378" y="570"/>
      <point x="378" y="486" type="curve"/>
      <point x="379" y="450" type="line"/>
      <point x="340" y="483"/>
      <point x="306" y="503"/>
      <point x="251" y="503" type="curve" smooth="yes"/>
      <point x="144" y="503"/>
      <point x="43" y="405"/>
      <point x="43" y="245" type="curve" smooth="yes"/>
      <point x="43" y="83"/>
      <point x="122" y="-12"/>
      <point x="245" y="-12" type="curve" smooth="yes"/>
      <point x="295" y="-12"/>
      <point x="344" y="14"/>
      <point x="380" y="49" type="curve"/>
      <point x="376" y="-33" type="line"/>
      <point x="376" y="-194" type="line"/>
      <point x="491" y="-194" type="line"/>
    </contour>
    <contour>
      <point x="273" y="83" type="curve" smooth="yes"/>
      <point x="202" y="83"/>
      <point x="162" y="140"/>
      <point x="162" y="246" type="curve" smooth="yes"/>
      <point x="162" y="349"/>
      <point x="213" y="408"/>
      <point x="276" y="408" type="curve" smooth="yes"/>
      <point x="309" y="408"/>
      <point x="342" y="397"/>
      <point x="376" y="367" type="curve"/>
      <point x="376" y="138" type="line"/>
      <point x="343" y="100"/>
      <point x="311" y="83"/>
    </contour>
    <contour>
      <point x="285" y="514" type="move" name="aboveLC"/>
    </contour>
    <contour>
      <point x="428" y="-218" type="move" name="belowLC"/>
    </contour>
  </outline>
</glyph>
<glyph name="rfishhookreversed" format="1">
  <advance width="357"/>
  <outline>
    <contour>
      <point x="169" y="-194" type="line"/>
      <point x="284" y="-194" type="line"/>
      <point x="284" y="309" type="line" smooth="yes"/>
      <point x="284" y="422"/>
      <point x="223" y="503"/>
      <point x="97" y="503" type="curve" smooth="yes"/>
      <point x="54" y="503"/>
      <point x="21" y="498"/>
      <point x="-2" y="489" type="curve"/>
      <point x="17" y="392" type="line"/>
      <point x="42" y="401"/>
      <point x="55" y="403"/>
      <point x="82" y="403" type="curve" smooth="yes"/>
      <point x="124" y="403"/>
      <point x="169" y="368"/>
      <point x="169" y="284" type="curve" smooth="yes"/>
    </contour>
    <contour>
      <point x="162" y="513" type="move" name="aboveLC"/>
    </contour>
  </outline>
</glyph>
<glyph name="rfishhookreversedtail" format="1">
  <advance width="357"/>
  <outline>
    <contour>
      <point x="314" y="-185" type="curve" smooth="yes"/>
      <point x="345" y="-185"/>
      <point x="368" y="-179"/>
      <point x="384" y="-172" type="curve"/>
      <point x="363" y="-86" type="line"/>
      <point x="353" y="-90"/>
      <point x="342" y="-93"/>
      <point x="330" y="-93" type="curve" smooth="yes"/>
      <point x="295" y="-93"/>
      <point x="284" y="-66"/>
      <point x="284" y="-14" type="curve" smooth="yes"/>
      <point x="284" y="309" type="line" smooth="yes"/>
      <point x="284" y="422"/>
      <point x="223" y="503"/>
      <point x="97" y="503" type="curve" smooth="yes"/>
      <point x="54" y="503"/>
      <point x="21" y="498"/>
      <point x="-2" y="489" type="curve"/>
      <point x="17" y="392" type="line"/>
      <point x="42" y="401"/>
      <point x="55" y="403"/>
      <point x="82" y="403" type="curve" smooth="yes"/>
      <point x="124" y="403"/>
      <point x="169" y="368"/>
      <point x="169" y="284" type="curve" smooth="yes"/>
      <point x="169" y="-12" type="line" smooth="yes"/>
      <point x="169" y="-112"/>
      <point x="205" y="-185"/>
    </contour>
    <contour>
      <point x="161" y="513" type="move" name="aboveLC"/>
    </contour>
  </outline>
</glyph>
<glyph name="rstroke" format="1">
  <advance width="386"/>
  <outline>
    <contour>
      <point x="16" y="171" type="line"/>
      <point x="327" y="171" type="line"/>
      <point x="327" y="230" type="line"/>
      <point x="92" y="230" type="line"/>
      <point x="16" y="225" type="line"/>
    </contour>
    <component base="r" xOffset="13"/>
  </outline>
</glyph>
<glyph name="rturned" format="1">
  <advance width="373"/>
  <outline>
    <component base="r" xScale="-1.0" yScale="-1.0" xOffset="373" yOffset="491"/>
    <contour>
      <point x="239" y="512" type="move" name="aboveLC"/>
    </contour>
    <contour>
      <point x="116" y="-20" type="move" name="belowLC"/>
    </contour>
  </outline>
</glyph>
<glyph name="shcha" format="1">
  <advance width="794"/>
  <outline>
    <contour>
      <point x="668" y="-172" type="line"/>
      <point x="767" y="-172" type="line"/>
      <point x="778" y="17" type="line"/>
      <point x="778" y="92" type="line"/>
      <point x="634" y="92" type="line"/>
      <point x="634" y="0" type="line"/>
      <point x="668" y="0" type="line"/>
    </contour>
    <component base="sha"/>
    <contour>
      <point x="388" y="512" type="move" name="aboveLC"/>
    </contour>
  </outline>
</glyph>
<glyph name="tbar" format="1">
  <advance width="361"/>
  <outline>
    <contour>
      <point x="20" y="227" type="line"/>
      <point x="331" y="227" type="line"/>
      <point x="331" y="286" type="line"/>
      <point x="96" y="286" type="line"/>
      <point x="20" y="281" type="line"/>
    </contour>
    <component base="t"/>
    <contour>
      <point x="155" y="648" type="move" name="aboveLC"/>
    </contour>
    <contour>
      <point x="216" y="-20" type="move" name="belowLC"/>
    </contour>
  </outline>
</glyph>
<glyph name="te" format="1">
  <advance width="476"/>
  <outline>
    <contour>
      <point x="180" y="0" type="line"/>
      <point x="296" y="0" type="line"/>
      <point x="296" y="400" type="line"/>
      <point x="450" y="400" type="line"/>
      <point x="450" y="491" type="line"/>
      <point x="26" y="491" type="line"/>
      <point x="26" y="400" type="line"/>
      <point x="180" y="400" type="line"/>
    </contour>
    <contour>
      <point x="238" y="512" type="move" name="aboveLC"/>
    </contour>
  </outline>
</glyph>
<glyph name="thook" format="1">
  <advance width="361"/>
  <outline>
    <contour>
      <point x="102" y="471" type="line"/>
      <point x="206" y="513" type="line"/>
      <point x="206" y="538"/>
      <point x="212" y="586"/>
      <point x="231" y="586" type="curve" smooth="yes"/>
      <point x="238" y="609"/>
      <point x="254" y="616"/>
      <point x="277" y="614" type="curve" smooth="yes"/>
      <point x="280" y="614"/>
      <point x="286" y="624"/>
      <point x="289" y="623" type="curve"/>
      <point x="284" y="626"/>
      <point x="295" y="703"/>
      <point x="288" y="703" type="curve"/>
      <point x="256" y="706"/>
      <point x="224" y="693"/>
      <point x="203" y="656" type="curve" smooth="yes"/>
      <point x="119" y="656"/>
      <point x="90" y="559"/>
      <point x="90" y="498" type="curve" smooth="yes"/>
    </contour>
  </outline>
</glyph>
<glyph name="tildeacutecmb.cap" format="1">
  <outline>
    <contour>
      <point x="-25" y="830" type="line"/>
      <point x="123" y="923" type="line"/>
      <point x="74" y="988" type="line"/>
      <point x="-65" y="883" type="line"/>
    </contour>
    <contour>
      <point x="-149" y="708" type="curve"/>
      <point x="-91" y="701" type="line"/>
      <point x="-87" y="730"/>
      <point x="-77" y="745"/>
      <point x="-56" y="745" type="curve" smooth="yes"/>
      <point x="-22" y="745"/>
      <point x="4" y="695"/>
      <point x="63" y="695" type="curve" smooth="yes"/>
      <point x="118" y="695"/>
      <point x="146" y="733"/>
      <point x="149" y="798" type="curve"/>
      <point x="91" y="805" type="line"/>
      <point x="87" y="776"/>
      <point x="77" y="761"/>
      <point x="56" y="761" type="curve" smooth="yes"/>
      <point x="22" y="761"/>
      <point x="-4" y="811"/>
      <point x="-63" y="811" type="curve" smooth="yes"/>
      <point x="-118" y="811"/>
      <point x="-146" y="773"/>
    </contour>
    <contour>
      <point x="0" y="676" type="move" name="_aboveUC"/>
    </contour>
  </outline>
</glyph>
<glyph name="tildeacutecmb" format="1">
  <outline>
    <contour>
      <point x="-31" y="709" type="line"/>
      <point x="117" y="799" type="line"/>
      <point x="68" y="861" type="line"/>
      <point x="-72" y="758" type="line"/>
    </contour>
    <contour>
      <point x="-146" y="580" type="curve"/>
      <point x="-91" y="575" type="line"/>
      <point x="-85" y="609"/>
      <point x="-76" y="625"/>
      <point x="-55" y="625" type="curve" smooth="yes"/>
      <point x="-18" y="625"/>
      <point x="1" y="570"/>
      <point x="61" y="570" type="curve" smooth="yes"/>
      <point x="114" y="570"/>
      <point x="140" y="612"/>
      <point x="146" y="681" type="curve"/>
      <point x="91" y="686" type="line"/>
      <point x="85" y="652"/>
      <point x="76" y="636"/>
      <point x="55" y="636" type="curve" smooth="yes"/>
      <point x="18" y="636"/>
      <point x="-1" y="691"/>
      <point x="-61" y="691" type="curve" smooth="yes"/>
      <point x="-114" y="691"/>
      <point x="-140" y="649"/>
    </contour>
    <contour>
      <point x="0" y="514" type="move" name="_aboveLC"/>
    </contour>
  </outline>
</glyph>
<glyph name="tturned" format="1">
  <advance width="361"/>
  <outline>
    <component base="t" xScale="-1.0" yScale="-1.0" xOffset="369" yOffset="491"/>
    <contour>
      <point x="180" y="512" type="move" name="aboveLC"/>
    </contour>
    <contour>
      <point x="180" y="-20" type="move" name="belowLC"/>
    </contour>
  </outline>
</glyph>
<glyph name="u" format="1">
  <advance width="556"/>
  <outline>
    <contour>
      <point x="219" y="-12" type="curve" smooth="yes"/>
      <point x="286" y="-12"/>
      <point x="334" y="21"/>
      <point x="377" y="72" type="curve"/>
      <point x="380" y="72" type="line"/>
      <point x="389" y="0" type="line"/>
      <point x="483" y="0" type="line"/>
      <point x="483" y="491" type="line"/>
      <point x="368" y="491" type="line"/>
      <point x="368" y="155" type="line"/>
      <point x="331" y="107"/>
      <point x="302" y="87"/>
      <point x="259" y="87" type="curve" smooth="yes"/>
      <point x="206" y="87"/>
      <point x="183" y="117"/>
      <point x="183" y="198" type="curve" smooth="yes"/>
      <point x="183" y="491" type="line"/>
      <point x="68" y="491" type="line"/>
      <point x="68" y="183" type="line" smooth="yes"/>
      <point x="68" y="59"/>
      <point x="114" y="-12"/>
    </contour>
    <contour>
      <point x="421" y="501" type="move" name="hornLC"/>
    </contour>
    <contour>
      <point x="285" y="512" type="move" name="aboveLC"/>
    </contour>
    <contour>
      <point x="408" y="0" type="move" name="ogonekLC"/>
    </contour>
    <contour>
      <point x="375" y="0" type="move" name="baseLC"/>
    </contour>
    <contour>
      <point x="286" y="-20" type="move" name="belowLC"/>
    </contour>
  </outline>
</glyph>
<glyph name="ubar" format="1">
  <advance width="596"/>
  <outline>
    <contour>
      <point x="10" y="265" type="line"/>
      <point x="582" y="265" type="line"/>
      <point x="582" y="324" type="line"/>
      <point x="94" y="324" type="line"/>
      <point x="10" y="319" type="line"/>
    </contour>
    <component base="u" xOffset="23"/>
    <contour>
      <point x="308" y="512" type="move" name="aboveLC"/>
    </contour>
    <contour>
      <point x="298" y="0" type="move" name="baseLC"/>
    </contour>
    <contour>
      <point x="298" y="-20" type="move" name="belowLC"/>
    </contour>
  </outline>
</glyph>
<glyph name="uhorn" format="1">
  <advance width="556"/>
  <outline>
    <contour>
      <point x="481" y="452" type="line"/>
      <point x="534" y="470"/>
      <point x="583" y="512"/>
      <point x="583" y="593" type="curve" smooth="yes"/>
      <point x="583" y="626"/>
      <point x="571" y="659"/>
      <point x="556" y="680" type="curve"/>
      <point x="470" y="641" type="line"/>
      <point x="478" y="626"/>
      <point x="485" y="606"/>
      <point x="485" y="585" type="curve" smooth="yes"/>
      <point x="485" y="513"/>
      <point x="444" y="496"/>
      <point x="402" y="491" type="curve"/>
    </contour>
    <component base="u"/>
    <contour>
      <point x="285" y="512" type="move" name="aboveLC"/>
    </contour>
    <contour>
      <point x="286" y="-20" type="move" name="belowLC"/>
    </contour>
  </outline>
</glyph>
<glyph name="yhook" format="1">
  <advance width="544"/>
  <outline>
    <contour>
      <point x="106" y="-202" type="curve" smooth="yes"/>
      <point x="213" y="-202"/>
      <point x="264" y="-133"/>
      <point x="305" y="-22" type="curve"/>
      <point x="445" y="380" type="line" smooth="yes"/>
      <point x="472" y="460"/>
      <point x="483" y="483"/>
      <point x="516" y="483" type="curve" smooth="yes"/>
      <point x="540" y="483"/>
      <point x="558" y="466"/>
      <point x="569" y="450" type="curve"/>
      <point x="636" y="507" type="line"/>
      <point x="611" y="542"/>
      <point x="568" y="585"/>
      <point x="506" y="585" type="curve" smooth="yes"/>
      <point x="443" y="585"/>
      <point x="391" y="555"/>
      <point x="361" y="450" type="curve" smooth="yes"/>
      <point x="298" y="250" type="line" smooth="yes"/>
      <point x="286" y="206"/>
      <point x="273" y="157"/>
      <point x="261" y="112" type="curve"/>
      <point x="257" y="112" type="line"/>
      <point x="242" y="158"/>
      <point x="228" y="207"/>
      <point x="214" y="250" type="curve" smooth="yes"/>
      <point x="129" y="491" type="line"/>
      <point x="12" y="491" type="line"/>
      <point x="205" y="6" type="line"/>
      <point x="196" y="-25" type="line" smooth="yes"/>
      <point x="180" y="-74"/>
      <point x="150" y="-109"/>
      <point x="98" y="-109" type="curve" smooth="yes"/>
      <point x="86" y="-109"/>
      <point x="72" y="-105"/>
      <point x="63" y="-102" type="curve"/>
      <point x="42" y="-192" type="line"/>
      <point x="60" y="-198"/>
      <point x="79" y="-202"/>
    </contour>
    <contour>
      <point x="255" y="514" type="move" name="aboveLC"/>
    </contour>
    <contour>
      <point x="214" y="-241" type="move" name="belowLC"/>
    </contour>
  </outline>
</glyph>
